<svg width="192" height="193" viewBox="0 0 192 193" fill="none" xmlns="http://www.w3.org/2000/svg">
    <g clip-path="url(#clip0_593_15342)">
        <g opacity="0.5">
            <ellipse cx="51.2292" cy="101.856" rx="12.3917" ry="9.6189" transform="rotate(-11.5 51.2292 101.856)"
                fill="#FDCBD4" />
            <circle cx="61.6563" cy="69.5719" r="13.1692" transform="rotate(-26.5 61.6563 69.5719)" fill="#FDCBD4" />
            <ellipse cx="12.3917" cy="9.6189" rx="12.3917" ry="9.6189"
                transform="matrix(-0.748955 0.66262 0.66262 0.748955 130.592 48.3218)" fill="#FDCBD4" />
            <circle cx="13.1692" cy="13.1692" r="13.1692"
                transform="matrix(-0.894934 0.446198 0.446198 0.894934 101.536 34.9734)" fill="#FDCBD4" />
            <path fill-rule="evenodd" clip-rule="evenodd"
                d="M147.886 98.4242C139.806 82.2174 101.527 76.2397 89.1088 74.7077C86.7069 74.4114 84.4153 75.554 83.2065 77.6505C76.9563 88.4905 58.6937 122.658 66.7741 138.865C73.0803 151.513 86.6716 158.808 100.537 151.895C110.408 146.974 113.552 131.123 113.552 131.123C113.552 131.123 128.103 138.151 137.973 133.23C151.839 126.317 154.192 111.072 147.886 98.4242Z"
                fill="#FDCBD4" />
        </g>
        <g opacity="0.5">
            <path
                d="M56.668 100.559C57.65 105.386 53.3915 110.531 46.833 111.866C40.2745 113.2 34.3441 110.127 33.362 105.301C32.38 100.474 36.6385 95.3283 43.197 93.9939C49.7555 92.6596 55.686 95.732 56.668 100.559Z"
                stroke="#F22078" />
            <circle cx="55.4422" cy="70.6454" r="12.6692" transform="rotate(-26.5 55.4422 70.6454)" stroke="#F22078" />
            <path
                d="M112.564 72.6899C115.828 76.3791 122.501 76.0747 127.513 71.6399C132.526 67.2051 133.641 60.6197 130.377 56.9305C127.113 53.2413 120.441 53.5457 115.429 57.9806C110.416 62.4154 109.301 69.0007 112.564 72.6899Z"
                stroke="#F22078" />
            <circle cx="13.1692" cy="13.1692" r="12.6692"
                transform="matrix(-0.894934 0.446198 0.446198 0.894934 95.3217 36.0469)" stroke="#F22078" />
            <mask id="path-10-inside-1_593_15342" fill="white">
                <path fill-rule="evenodd" clip-rule="evenodd"
                    d="M141.672 99.4977C133.592 83.2909 95.3134 77.3132 82.8947 75.7812C80.4928 75.4849 78.2012 76.6275 76.9924 78.724C70.7421 89.564 52.4796 123.732 60.56 139.939C66.8661 152.587 80.4575 159.881 94.3228 152.968C104.194 148.047 107.338 132.197 107.338 132.197C107.338 132.197 121.888 139.225 131.759 134.303C145.625 127.39 147.978 112.146 141.672 99.4977Z" />
            </mask>
            <path
                d="M141.672 99.4977L142.567 99.0515L141.672 99.4977ZM60.56 139.939L61.4549 139.493L60.56 139.939ZM107.338 132.197L107.773 131.297L106.608 130.734L106.357 132.002L107.338 132.197ZM82.7722 76.7737C88.9595 77.537 101.567 79.4059 113.618 83.0926C119.644 84.9363 125.495 87.224 130.323 90.0344C135.164 92.8526 138.882 96.1417 140.777 99.9439L142.567 99.0515C140.423 94.7503 136.325 91.2146 131.329 88.3059C126.319 85.3895 120.309 83.0483 114.203 81.1802C101.989 77.4434 89.2486 75.5575 83.0171 74.7887L82.7722 76.7737ZM76.1261 78.2245C72.9898 83.6638 66.8285 94.9739 62.4624 106.977C60.2797 112.978 58.5326 119.186 57.8467 124.943C57.1626 130.684 57.5206 136.084 59.6651 140.385L61.4549 139.493C59.5592 135.69 59.1698 130.742 59.8327 125.179C60.4937 119.632 62.1878 113.583 64.342 107.661C68.6496 95.818 74.7447 84.6242 77.8587 79.2235L76.1261 78.2245ZM59.6651 140.385C62.9083 146.89 68.0456 152.061 74.2123 154.708C80.4 157.364 87.5716 157.452 94.769 153.863L93.8766 152.073C87.2087 155.398 80.652 155.295 75.0011 152.87C69.3293 150.436 64.5179 145.636 61.4549 139.493L59.6651 140.385ZM94.769 153.863C100.026 151.242 103.401 145.778 105.447 141.141C106.479 138.8 107.195 136.621 107.653 135.027C107.883 134.229 108.048 133.575 108.156 133.119C108.211 132.891 108.251 132.711 108.277 132.588C108.291 132.526 108.301 132.479 108.308 132.446C108.311 132.429 108.314 132.416 108.316 132.407C108.316 132.403 108.317 132.399 108.318 132.397C108.318 132.395 108.318 132.394 108.318 132.393C108.318 132.393 108.318 132.392 108.319 132.392C108.319 132.392 108.319 132.392 107.338 132.197C106.357 132.002 106.357 132.002 106.357 132.002C106.357 132.002 106.357 132.002 106.357 132.002C106.357 132.002 106.357 132.003 106.357 132.003C106.356 132.004 106.356 132.007 106.355 132.01C106.354 132.016 106.352 132.026 106.349 132.04C106.344 132.067 106.335 132.109 106.323 132.164C106.299 132.275 106.262 132.442 106.21 132.656C106.108 133.086 105.951 133.709 105.731 134.474C105.291 136.006 104.604 138.096 103.617 140.333C101.623 144.852 98.4905 149.773 93.8766 152.073L94.769 153.863ZM131.313 133.408C126.699 135.709 120.884 135.249 116.075 134.122C113.694 133.564 111.611 132.855 110.123 132.284C109.38 132 108.788 131.75 108.383 131.573C108.181 131.485 108.026 131.414 107.922 131.367C107.871 131.343 107.832 131.325 107.807 131.313C107.794 131.307 107.785 131.302 107.779 131.3C107.777 131.298 107.775 131.297 107.773 131.297C107.773 131.297 107.773 131.296 107.772 131.296C107.772 131.296 107.772 131.296 107.772 131.296C107.773 131.296 107.773 131.297 107.338 132.197C106.903 133.097 106.903 133.098 106.904 133.098C106.904 133.098 106.904 133.098 106.904 133.098C106.905 133.099 106.906 133.099 106.907 133.1C106.91 133.101 106.913 133.102 106.917 133.104C106.926 133.108 106.937 133.114 106.953 133.121C106.983 133.136 107.027 133.156 107.085 133.183C107.199 133.236 107.366 133.311 107.581 133.405C108.011 133.593 108.632 133.855 109.408 134.152C110.957 134.746 113.128 135.486 115.619 136.069C120.553 137.226 126.948 137.819 132.205 135.198L131.313 133.408ZM140.777 99.9439C143.84 106.087 144.778 112.818 143.309 118.813C141.845 124.786 137.981 130.084 131.313 133.408L132.205 135.198C139.403 131.61 143.648 125.829 145.251 119.289C146.849 112.771 145.81 105.556 142.567 99.0515L140.777 99.9439ZM83.0171 74.7887C80.2166 74.4433 77.5356 75.78 76.1261 78.2245L77.8587 79.2235C78.8669 77.475 80.7691 76.5266 82.7722 76.7737L83.0171 74.7887Z"
                fill="#F22078" mask="url(#path-10-inside-1_593_15342)" />
        </g>
    </g>
    <defs>
        <clipPath id="clip0_593_15342">
            <rect width="143.15" height="143.15" fill="white" transform="translate(0 64) rotate(-26.5)" />
        </clipPath>
    </defs>
</svg>