<svg width="25" height="25" viewBox="0 0 25 25" fill="none" xmlns="http://www.w3.org/2000/svg">
    <g clip-path="url(#clip0_39_11773)">
        <path
            d="M7.58859 13.103C7.63312 10.9284 7.84828 9.27039 9.30316 7.50809C11.002 5.45027 12.8935 4.48313 15.5497 4.73846C18.6238 5.03395 20.963 5.39844 22.5971 9.32714C24.4354 13.7467 21.3124 19.1618 16.5819 19.8931C12.4441 20.5328 7.50286 17.2891 7.58859 13.103Z"
            fill="#F22078" fill-opacity="0.5" />
        <g opacity="0.5">
            <path
                d="M4.7087 13.103C4.75324 10.9284 4.96839 9.27039 6.42328 7.50809C8.12211 5.45027 10.0136 4.48313 12.6698 4.73846C15.7439 5.03395 18.0831 5.39844 19.7172 9.32714C21.5555 13.7467 18.4325 19.1618 13.7021 19.8931C9.56425 20.5328 4.62297 17.2891 4.7087 13.103Z"
                stroke="#F22078" />
        </g>
    </g>
    <defs>
        <clipPath id="clip0_39_11773">
            <rect width="24" height="24" fill="white" transform="translate(0.5 0.199951)" />
        </clipPath>
    </defs>
</svg>