<svg width="36" height="36" viewBox="0 0 36 36" fill="none" xmlns="http://www.w3.org/2000/svg">
<g clip-path="url(#clip0_529_477)">
<g opacity="0.5">
<path d="M2.85659 19.5662C2.93448 15.7628 3.31079 12.8629 5.85541 9.78054C8.82671 6.18139 12.1349 4.48984 16.7807 4.93641C22.1573 5.45324 26.2486 6.09074 29.1068 12.9621C32.322 20.692 26.8598 30.1632 18.5861 31.4422C11.349 32.561 2.70664 26.8878 2.85659 19.5662Z" stroke="#7791EE"/>
</g>
<path d="M6.0447 19.5662C6.12259 15.7628 6.4989 12.8629 9.04352 9.78054C12.0148 6.18139 15.323 4.48984 19.9688 4.93641C25.3454 5.45324 29.4367 6.09074 32.2949 12.9621C35.5101 20.692 30.0479 30.1632 21.7742 31.4422C14.5371 32.561 5.89475 26.8878 6.0447 19.5662Z" fill="#7791EE" fill-opacity="0.2"/>
<path fill-rule="evenodd" clip-rule="evenodd" d="M26.2909 4.70146C27.2298 5.22703 27.5649 6.41423 27.0393 7.35314L17.9205 23.6434C17.0156 25.2599 14.7758 25.4773 13.5769 24.0651L6.93945 16.2466C6.24309 15.4263 6.34353 14.1968 7.16381 13.5005C7.98408 12.8041 9.21356 12.9046 9.90993 13.7248L15.3922 20.1826L23.6392 5.44987C24.1648 4.51096 25.352 4.17588 26.2909 4.70146Z" fill="#7791EE"/>
</g>
<defs>
<clipPath id="clip0_529_477">
<rect width="36" height="36" fill="white"/>
</clipPath>
</defs>
</svg>
