<svg width="63" height="63" viewBox="0 0 63 63" fill="none" xmlns="http://www.w3.org/2000/svg">
    <g opacity="0.6">
        <path
            d="M26.6486 18.6346C26.9667 17.2867 28.8849 17.2867 29.2029 18.6346L31.773 29.5262C31.8872 30.01 32.265 30.3878 32.7488 30.502L43.6404 33.0721C44.9883 33.3901 44.9883 35.3084 43.6404 35.6264L32.7488 38.1965C32.265 38.3107 31.8872 38.6884 31.773 39.1723L29.2029 50.0639C28.8849 51.4117 26.9667 51.4117 26.6486 50.0639L24.0785 39.1723C23.9643 38.6884 23.5866 38.3107 23.1027 38.1965L12.2111 35.6264C10.8633 35.3084 10.8633 33.3901 12.2111 33.0721L23.1027 30.502C23.5866 30.3878 23.9643 30.01 24.0785 29.5262L26.6486 18.6346Z"
            fill="#FDCBD4" />
        <path
            d="M46.2271 9.44465C46.3753 8.81678 47.2689 8.81678 47.417 9.44465L48.6143 14.5184C48.6675 14.7438 48.8435 14.9198 49.0689 14.9729L54.1426 16.1702C54.7705 16.3183 54.7705 17.2119 54.1426 17.3601L49.0689 18.5573C48.8435 18.6105 48.6675 18.7865 48.6143 19.0119L47.417 24.0856C47.2689 24.7135 46.3753 24.7135 46.2271 24.0856L45.0299 19.0119C44.9767 18.7865 44.8007 18.6105 44.5753 18.5573L39.5016 17.3601C38.8737 17.2119 38.8737 16.3183 39.5016 16.1702L44.5753 14.9729C44.8007 14.9198 44.9767 14.7438 45.0299 14.5184L46.2271 9.44465Z"
            fill="#FDCBD4" />
    </g>
    <g opacity="0.5">
        <path
            d="M26.2385 17.4026L28.8085 28.2942C28.9531 28.9069 29.4315 29.3852 30.0442 29.5298L40.9358 32.0999C41.9247 32.3333 41.9247 33.7407 40.9358 33.974L30.0442 36.5441C29.4315 36.6887 28.9531 37.1671 28.8085 37.7798L26.2385 48.6714C26.0051 49.6603 24.5977 49.6603 24.3643 48.6714L21.7942 37.7798C21.6497 37.1671 21.1713 36.6887 20.5586 36.5441L9.66697 33.974C8.67806 33.7407 8.67806 32.3333 9.66697 32.0999L20.5586 29.5298C21.1713 29.3852 21.6497 28.9069 21.7942 28.2942L24.3643 17.4026C24.5977 16.4137 26.0051 16.4137 26.2385 17.4026Z"
            stroke="#F22078" stroke-width="0.698879" />
        <path
            d="M44.4525 8.21289L45.6497 13.2866C45.7333 13.6409 46.0099 13.9174 46.3641 14.001L51.4379 15.1983C51.7068 15.2617 51.7068 15.6445 51.4379 15.708L46.3641 16.9052C46.0099 16.9888 45.7333 17.2654 45.6497 17.6196L44.4525 22.6934C44.389 22.9623 44.0062 22.9623 43.9428 22.6934L42.7455 17.6196C42.6619 17.2654 42.3854 16.9888 42.0311 16.9052L36.9574 15.708C36.6884 15.6445 36.6884 15.2617 36.9574 15.1983L42.0311 14.001C42.3854 13.9174 42.6619 13.6409 42.7455 13.2866L43.9428 8.21289C44.0063 7.94393 44.389 7.94394 44.4525 8.21289Z"
            stroke="#F22078" stroke-width="0.698879" />
    </g>
</svg>