<svg width="120" height="120" viewBox="0 0 120 120" fill="none" xmlns="http://www.w3.org/2000/svg">
    <path fill-rule="evenodd" clip-rule="evenodd"
        d="M47.7635 31.5787C40.8101 27.5601 29.0129 22.106 25.3742 28.8169C21.6272 35.7276 31.7759 45.8661 35.5711 49.3087C36.1128 49.8 36.6624 50.2787 37.2124 50.7577C37.5759 51.0743 37.9396 51.391 38.3012 51.7116L41.7312 54.7524C33.9706 57.9283 26.186 61.7703 21.376 68.6061C18.9631 72.0352 17.5245 75.7914 19.5128 78.7249C23.0862 83.9969 33.8088 80.8298 38.3435 79.1856C39.1941 78.8772 40.0358 78.5457 40.8776 78.2142C41.4085 78.0051 41.9394 77.796 42.4726 77.5927L47.9552 75.5021C46.7471 83.1655 46.2452 91.0589 49.2388 98.157C50.8682 102.02 53.2914 105.231 56.8328 105.099C63.1973 104.863 66.1935 94.091 67.2022 89.3741C67.3914 88.4895 67.5563 87.6001 67.7212 86.7107L67.7212 86.7105L67.7213 86.7103L67.7215 86.7093L67.7216 86.7086C67.8255 86.1481 67.9294 85.5876 68.0395 85.0283L69.209 79.0823C75.1512 84.1659 81.663 88.7841 89.3423 89.9499C93.4878 90.5792 97.4913 90.1907 99.2294 87.1023C102.353 81.552 94.7343 73.3691 91.2394 70.0445C90.5839 69.4209 89.9117 68.8155 89.2394 68.2101C88.8154 67.8283 88.3914 67.4464 87.9715 67.06L82.7224 62.2285C86.0085 60.9081 89.2128 59.3942 92.1667 57.4409C98.8657 53.0111 109.011 44.887 104.628 38.6362C100.116 32.1994 86.5141 36.758 81.7398 38.6184C81.0584 38.8839 80.3847 39.1622 79.7106 39.4407C79.2651 39.6248 78.8194 39.8089 78.3712 39.9895L76.6828 40.6696C77.1053 37.8661 77.3566 35.0429 77.2836 32.2064C77.0768 24.178 75.5632 11.2694 67.94 11.6734C60.0899 12.0893 56.7481 26.0399 55.7958 31.0746C55.6599 31.7932 55.5389 32.512 55.4178 33.2313L55.4178 33.2317L55.4177 33.2322C55.3377 33.7072 55.2578 34.1824 55.1734 34.6579L54.8211 36.6441C52.6047 34.7688 50.2789 33.0324 47.7635 31.5787ZM52.1399 59.0876C52.3862 62.149 53.7306 63.9495 55.723 66.0885C59.5585 70.2061 67.3602 68.7095 70.7522 64.2197C74.6301 59.0867 72.5736 50.9409 66.664 48.399C61.4107 46.1395 58.8135 47.9774 55.5721 50.5697C52.7713 52.8096 51.8523 55.5128 52.1399 59.0876Z"
        fill="#CCBBF2" fill-opacity="0.6" />
    <g opacity="0.5">
        <path
            d="M44.6079 31.7681L44.8581 31.3352L44.6079 31.7681ZM22.2186 29.0063L21.7791 28.768L21.7791 28.768L22.2186 29.0063ZM51.6655 36.8335L51.3425 37.2152L52.006 37.7766L52.1578 36.9208L51.6655 36.8335ZM52.0178 34.8473L51.5255 34.7599L52.0178 34.8473ZM52.2621 33.4211L51.7691 33.338L51.7691 33.3381L52.2621 33.4211ZM52.2622 33.4207L52.7553 33.5038L52.7553 33.5037L52.2622 33.4207ZM52.6402 31.264L53.1315 31.3569L52.6402 31.264ZM64.7844 11.8628L64.758 11.3635L64.758 11.3635L64.7844 11.8628ZM74.128 32.3958L74.6278 32.383L74.6278 32.383L74.128 32.3958ZM73.5272 40.859L73.0328 40.7845L72.9024 41.6497L73.714 41.3228L73.5272 40.859ZM75.2156 40.1788L75.4024 40.6426L75.2156 40.1788ZM76.555 39.6301L76.364 39.168L76.555 39.6301ZM78.5842 38.8078L78.7657 39.2737L78.5842 38.8078ZM101.473 38.8256L101.882 38.5386L101.473 38.8256ZM89.0111 57.6303L89.2869 58.0473L89.0111 57.6303ZM79.5668 62.4179L79.3804 61.954L78.6454 62.2493L79.2282 62.7858L79.5668 62.4179ZM84.8159 67.2494L84.4773 67.6173L84.8159 67.2494ZM86.0838 68.3995L85.7492 68.7711L85.7492 68.7711L86.0838 68.3995ZM88.0838 70.2339L87.7392 70.5962L88.0838 70.2339ZM96.0738 87.2917L95.638 87.0464L96.0738 87.2917ZM86.1867 90.1393L86.2618 89.645L86.1867 90.1393ZM66.0534 79.2717L66.3784 78.8918L65.728 78.3353L65.5628 79.1752L66.0534 79.2717ZM64.8838 85.2177L65.3744 85.3142L64.8838 85.2177ZM64.5658 86.8987L65.0571 86.9916L65.0575 86.9899L64.5658 86.8987ZM64.5657 86.8997L65.0546 87.0051L65.057 86.9926L64.5657 86.8997ZM64.5656 86.8999L64.0768 86.7945L64.0753 86.8016L64.074 86.8088L64.5656 86.8999ZM64.0466 89.5635L64.5355 89.668L64.0466 89.5635ZM53.6772 105.289L53.6958 105.788L53.6772 105.289ZM46.0832 98.3464L46.5439 98.1521L46.0832 98.3464ZM44.7996 75.6915L45.2935 75.7694L45.4279 74.9168L44.6215 75.2244L44.7996 75.6915ZM39.317 77.7821L39.1388 77.3149L39.1388 77.3149L39.317 77.7821ZM37.722 78.4036L37.5388 77.9384L37.5388 77.9384L37.722 78.4036ZM35.1879 79.375L35.3583 79.8451L35.3583 79.8451L35.1879 79.375ZM16.3572 78.9143L16.7711 78.6338L16.7711 78.6338L16.3572 78.9143ZM18.2204 68.7955L18.6293 69.0832L18.6293 69.0832L18.2204 68.7955ZM38.5755 54.9418L38.7649 55.4046L39.5081 55.1004L38.9072 54.5677L38.5755 54.9418ZM35.1456 51.901L34.8139 52.2751L34.8139 52.2751L35.1456 51.901ZM34.0568 50.9471L34.3852 50.57L34.3837 50.5688L34.0568 50.9471ZM34.0564 50.9468L33.728 51.3238L33.7295 51.3251L34.0564 50.9468ZM32.4155 49.4981L32.0796 49.8684L32.4155 49.4981ZM44.8581 31.3352C41.3709 29.3199 36.6326 26.9218 32.2871 25.8775C30.115 25.3555 27.999 25.1609 26.1695 25.5526C24.3192 25.9488 22.7671 26.9457 21.7791 28.768L22.6582 29.2446C23.4895 27.7114 24.7765 26.8735 26.3789 26.5305C28.0021 26.1829 29.9521 26.3448 32.0534 26.8498C36.2545 27.8595 40.8915 30.1978 44.3577 32.201L44.8581 31.3352ZM51.9885 36.4518C49.7572 34.5639 47.4067 32.8081 44.8581 31.3352L44.3577 32.201C46.8398 33.6355 49.1411 35.3526 51.3425 37.2152L51.9885 36.4518ZM51.5255 34.7599L51.1732 36.7462L52.1578 36.9208L52.5101 34.9346L51.5255 34.7599ZM51.7691 33.3381C51.6891 33.8136 51.6094 34.2868 51.5255 34.7599L52.5101 34.9346C52.5949 34.4564 52.6753 33.9789 52.7552 33.5041L51.7691 33.3381ZM51.7692 33.3376L51.7691 33.338L52.7552 33.5042L52.7553 33.5038L51.7692 33.3376ZM52.1489 31.1711C52.0119 31.8954 51.8901 32.6192 51.7692 33.3377L52.7553 33.5037C52.8765 32.7835 52.9966 32.0697 53.1315 31.3569L52.1489 31.1711ZM64.758 11.3635C62.6377 11.4758 60.8463 12.5038 59.3539 14.0097C57.8656 15.5114 56.653 17.5083 55.6721 19.6208C53.7102 23.8461 52.6276 28.6404 52.1489 31.1711L53.1315 31.3569C53.6051 28.8528 54.6695 24.1546 56.5791 20.0419C57.534 17.9854 58.6882 16.102 60.0642 14.7136C61.4359 13.3295 63.0061 12.4577 64.8109 12.3621L64.758 11.3635ZM74.6278 32.383C74.5241 28.3566 74.093 23.0636 72.7129 18.8127C72.0231 16.688 71.0833 14.7821 69.7935 13.4269C68.489 12.0563 66.8279 11.2538 64.758 11.3635L64.8109 12.3621C66.5525 12.2698 67.9394 12.9293 69.0691 14.1163C70.2136 15.3188 71.0945 17.066 71.7618 19.1215C73.096 23.2311 73.5251 28.4066 73.6281 32.4087L74.6278 32.383ZM74.0216 40.9335C74.447 38.1106 74.7018 35.2569 74.6278 32.383L73.6281 32.4087C73.7002 35.2076 73.4523 38.0003 73.0328 40.7845L74.0216 40.9335ZM73.714 41.3228L75.4024 40.6426L75.0288 39.7151L73.3404 40.3952L73.714 41.3228ZM75.4024 40.6426C75.853 40.4611 76.3007 40.2761 76.7459 40.0922L76.364 39.168C75.9182 39.3522 75.4746 39.5355 75.0288 39.7151L75.4024 40.6426ZM76.7459 40.0922C77.4208 39.8134 78.0898 39.537 78.7657 39.2737L78.4026 38.3419C77.7158 38.6096 77.0374 38.8898 76.364 39.168L76.7459 40.0922ZM78.7657 39.2737C81.1403 38.3484 85.6887 36.7613 90.1884 36.2014C92.4384 35.9214 94.6472 35.9022 96.5538 36.3333C98.4545 36.7632 100.026 37.6328 101.063 39.1126L101.882 38.5386C100.663 36.8 98.8423 35.8256 96.7744 35.358C94.7122 34.8916 92.3761 34.9215 90.0649 35.2091C85.442 35.7843 80.8024 37.4068 78.4026 38.3419L78.7657 39.2737ZM101.063 39.1126C102.065 40.5407 102.24 42.0664 101.832 43.6535C101.419 45.2612 100.404 46.9342 99.0145 48.5893C96.2364 51.8986 92.0747 55.005 88.7353 57.2132L89.2869 58.0473C92.6465 55.8258 96.9068 52.6552 99.7804 49.2323C101.217 47.5214 102.335 45.7144 102.801 43.9024C103.272 42.0698 103.072 40.2359 101.882 38.5386L101.063 39.1126ZM88.7353 57.2132C85.82 59.141 82.6495 60.6404 79.3804 61.954L79.7532 62.8819C83.0562 61.5547 86.2943 60.0262 89.2869 58.0473L88.7353 57.2132ZM85.1545 66.8815L79.9054 62.05L79.2282 62.7858L84.4773 67.6173L85.1545 66.8815ZM86.4184 68.028C85.9941 67.6458 85.5721 67.2658 85.1545 66.8815L84.4773 67.6173C84.8995 68.0058 85.3255 68.3895 85.7492 68.7711L86.4184 68.028ZM88.4285 69.8716C87.7672 69.2426 87.0899 68.6326 86.4184 68.028L85.7492 68.7711C86.4223 69.3772 87.0895 69.9781 87.7392 70.5962L88.4285 69.8716ZM96.5095 87.5369C98.2188 84.4996 96.9474 80.837 94.986 77.6652C93.0012 74.4556 90.1863 71.5438 88.4285 69.8716L87.7392 70.5962C89.4762 72.2486 92.2181 75.0906 94.1354 78.1911C96.0762 81.3295 97.0523 84.5335 95.638 87.0464L96.5095 87.5369ZM86.1117 90.6336C88.2151 90.953 90.3231 91.0214 92.1465 90.5966C93.9811 90.1692 95.5545 89.2338 96.5095 87.5369L95.638 87.0464C94.8549 88.438 93.5575 89.2411 91.9196 89.6227C90.2703 90.0069 88.3038 89.955 86.2618 89.645L86.1117 90.6336ZM65.7283 79.6517C71.6817 84.7448 78.2848 89.4454 86.1117 90.6336L86.2618 89.645C78.7301 88.5016 72.3095 83.9659 66.3784 78.8918L65.7283 79.6517ZM65.3744 85.3142L66.544 79.3682L65.5628 79.1752L64.3932 85.1212L65.3744 85.3142ZM65.0575 86.9899C65.1615 86.4287 65.265 85.8707 65.3744 85.3142L64.3932 85.1212C64.2826 85.6839 64.1781 86.2473 64.0742 86.8076L65.0575 86.9899ZM65.057 86.9926L65.0571 86.9916L64.0745 86.8058L64.0744 86.8068L65.057 86.9926ZM65.0544 87.0053L65.0544 87.0051L64.0769 86.7943L64.0768 86.7945L65.0544 87.0053ZM64.5355 89.668C64.7264 88.7756 64.8925 87.8794 65.0572 86.9911L64.074 86.8088C63.9089 87.6994 63.7451 88.5821 63.5576 89.4589L64.5355 89.668ZM53.6958 105.788C57.1786 105.659 59.6372 102.661 61.3167 99.3313C63.0163 95.962 64.0282 92.0405 64.5355 89.668L63.5576 89.4589C63.0563 91.8033 62.0657 95.6261 60.4239 98.881C58.7621 102.175 56.5402 104.682 53.6586 104.789L53.6958 105.788ZM45.6225 98.5407C46.4493 100.501 47.4924 102.334 48.8073 103.667C50.1303 105.008 51.75 105.861 53.6958 105.788L53.6586 104.789C52.0629 104.848 50.7003 104.162 49.5191 102.965C48.3297 101.759 47.3466 100.055 46.5439 98.1521L45.6225 98.5407ZM44.3057 75.6137C43.0951 83.2926 42.5712 91.3059 45.6225 98.5407L46.5439 98.1521C43.6079 91.1907 44.0878 83.4172 45.2935 75.7694L44.3057 75.6137ZM44.6215 75.2244L39.1388 77.3149L39.4951 78.2493L44.9777 76.1587L44.6215 75.2244ZM39.1388 77.3149C38.6027 77.5194 38.0693 77.7295 37.5388 77.9384L37.9052 78.8688C38.4365 78.6596 38.9649 78.4515 39.4951 78.2493L39.1388 77.3149ZM37.5388 77.9384C36.6959 78.2703 35.8605 78.5993 35.0175 78.9049L35.3583 79.8451C36.2164 79.5339 37.0645 79.1999 37.9052 78.8688L37.5388 77.9384ZM35.0175 78.9049C32.7636 79.7221 28.9968 80.9078 25.3665 81.2403C21.6919 81.5768 18.389 81.0207 16.7711 78.6338L15.9433 79.1949C17.8988 82.0799 21.7439 82.5762 25.4577 82.2361C29.2157 81.892 33.0775 80.672 35.3583 79.8451L35.0175 78.9049ZM16.7711 78.6338C15.8752 77.312 15.7354 75.7926 16.1247 74.1565C16.5168 72.509 17.4407 70.7724 18.6293 69.0832L17.8115 68.5077C16.5872 70.2476 15.5853 72.1037 15.1519 73.925C14.7158 75.7576 14.8509 77.5831 15.9433 79.1949L16.7711 78.6338ZM18.6293 69.0832C23.3483 62.3768 31.0074 58.5792 38.7649 55.4046L38.3862 54.4791C30.6226 57.6562 22.7125 61.5427 17.8115 68.5077L18.6293 69.0832ZM34.8139 52.2751L38.2439 55.316L38.9072 54.5677L35.4773 51.5269L34.8139 52.2751ZM33.7284 51.3242C34.0922 51.641 34.4542 51.9562 34.8139 52.2751L35.4773 51.5269C35.1137 51.2046 34.7484 50.8864 34.3852 50.57L33.7284 51.3242ZM33.7295 51.3251L33.7299 51.3254L34.3837 50.5688L34.3834 50.5685L33.7295 51.3251ZM32.0796 49.8684C32.6254 50.3636 33.1788 50.8454 33.728 51.3238L34.3848 50.5697C33.8343 50.0903 33.2886 49.615 32.7515 49.1278L32.0796 49.8684ZM21.7791 28.768C20.767 30.6345 20.7076 32.699 21.2118 34.7584C21.7146 36.8119 22.7836 38.8893 24.0722 40.8294C26.6498 44.7099 30.172 48.138 32.0796 49.8684L32.7515 49.1278C30.8639 47.4155 27.4141 44.0531 24.9052 40.2761C23.6507 38.3874 22.6479 36.4192 22.1831 34.5206C21.7196 32.6278 21.7967 30.8334 22.6582 29.2446L21.7791 28.768Z"
            fill="#804DEC" />
        <path
            d="M52.2041 66.6306C50.2116 64.4915 48.8672 62.691 48.6209 59.6296C48.3333 56.0548 49.2523 53.3517 52.0531 51.1117C55.2945 48.5194 57.8918 46.6815 63.145 48.9411C69.0547 51.4829 71.1111 59.6288 67.2333 64.7617C63.8412 69.2516 56.0395 70.7481 52.2041 66.6306Z"
            stroke="#804DEC" />
    </g>
</svg>