<svg width="120" height="120" viewBox="0 0 120 120" fill="none" xmlns="http://www.w3.org/2000/svg">
    <path fill-rule="evenodd" clip-rule="evenodd"
        d="M18.7342 49.1193C18.7342 66.9498 49.2266 88.9502 60.2941 96.3482C62.7045 97.9594 65.7892 97.9594 68.1997 96.3482C79.2672 88.9502 109.76 66.9498 109.76 49.1193C109.759 34.9254 100.813 22.2785 85.2527 22.2785C74.1756 22.2785 64.2469 35.1154 64.2469 35.1154C64.2469 35.1154 54.3182 22.2785 43.241 22.2785C27.6812 22.2785 18.7342 34.9254 18.7342 49.1193Z"
        fill="#CCBBF2" fill-opacity="0.6" />
    <g opacity="0.5">
        <mask id="path-2-inside-1_121_54316" fill="white">
            <path fill-rule="evenodd" clip-rule="evenodd"
                d="M10.6329 49.1193C10.6329 66.9498 41.1253 88.9502 52.1928 96.3482C54.6032 97.9594 57.6879 97.9594 60.0984 96.3482C71.1659 88.9502 101.658 66.9498 101.658 49.1193C101.658 34.9254 92.7113 22.2785 77.1514 22.2785C66.0743 22.2785 56.1456 35.1154 56.1456 35.1154C56.1456 35.1154 46.2169 22.2785 35.1397 22.2785C19.5799 22.2785 10.633 34.9254 10.6329 49.1193Z" />
        </mask>
        <path
            d="M10.6329 49.1193L9.63293 49.1193L10.6329 49.1193ZM101.658 49.1193H100.658H101.658ZM56.1456 35.1154L55.3546 35.7272L56.1456 36.7499L56.9366 35.7272L56.1456 35.1154ZM52.7485 95.5168C47.2337 91.8305 36.8997 84.5187 27.9554 75.9248C23.4827 71.6274 19.3842 67.0345 16.4099 62.4375C13.4278 57.8285 11.6329 53.303 11.6329 49.1193L9.63293 49.1193C9.63292 53.8508 11.6496 58.7618 14.7307 63.5239C17.8195 68.298 22.0358 73.0108 26.5697 77.367C35.6384 86.0804 46.0844 93.4679 51.6371 97.1795L52.7485 95.5168ZM60.6541 97.1795C66.2068 93.4679 76.6527 86.0804 85.7215 77.367C90.2553 73.0108 94.4716 68.298 97.5605 63.5239C100.642 58.7618 102.658 53.8508 102.658 49.1193L100.658 49.1193C100.658 53.303 98.8633 57.8285 95.8813 62.4375C92.907 67.0345 88.8084 71.6274 84.3358 75.9248C75.3915 84.5187 65.0575 91.8305 59.5427 95.5168L60.6541 97.1795ZM102.658 49.1193C102.658 41.8203 100.359 34.8712 96.0028 29.7298C91.6323 24.571 85.2272 21.2785 77.1514 21.2785V23.2785C84.6356 23.2785 90.4839 26.3095 94.4768 31.0226C98.4845 35.7531 100.658 42.2244 100.658 49.1193L102.658 49.1193ZM77.1514 21.2785C71.2536 21.2785 65.7726 24.6769 61.8559 27.9274C59.8792 29.5681 58.2591 31.2061 57.1331 32.4337C56.5695 33.0481 56.1282 33.5613 55.8263 33.9228C55.6753 34.1036 55.5591 34.2466 55.4798 34.3455C55.4401 34.3949 55.4097 34.4333 55.3887 34.4599C55.3782 34.4733 55.3701 34.4836 55.3644 34.4909C55.3616 34.4946 55.3593 34.4975 55.3577 34.4996C55.3569 34.5006 55.3562 34.5015 55.3557 34.5022C55.3554 34.5025 55.3551 34.5029 55.355 34.503C55.3548 34.5033 55.3546 34.5036 56.1456 35.1154C56.9366 35.7272 56.9365 35.7274 56.9364 35.7275C56.9364 35.7274 56.9364 35.7275 56.9364 35.7275C56.9365 35.7273 56.9367 35.727 56.9371 35.7265C56.9379 35.7255 56.9392 35.7238 56.9412 35.7213C56.9451 35.7162 56.9514 35.7082 56.9601 35.6972C56.9774 35.6752 57.004 35.6416 57.0398 35.597C57.1114 35.5078 57.2193 35.375 57.3614 35.2048C57.6457 34.8643 58.0666 34.3746 58.607 33.7856C59.6888 32.6062 61.2432 31.0351 63.1332 29.4665C66.9502 26.2986 71.9721 23.2785 77.1514 23.2785V21.2785ZM35.1397 23.2785C40.3191 23.2785 45.3409 26.2986 49.158 29.4665C51.048 31.0351 52.6024 32.6062 53.6842 33.7856C54.2245 34.3746 54.6454 34.8643 54.9298 35.2048C55.0719 35.375 55.1798 35.5078 55.2513 35.597C55.2871 35.6416 55.3138 35.6752 55.3311 35.6972C55.3397 35.7082 55.346 35.7162 55.35 35.7213C55.3519 35.7238 55.3533 35.7255 55.3541 35.7265C55.3544 35.727 55.3547 35.7273 55.3548 35.7275C55.3548 35.7275 55.3548 35.7274 55.3548 35.7275C55.3547 35.7274 55.3546 35.7272 56.1456 35.1154C56.9366 34.5036 56.9364 34.5033 56.9362 34.503C56.936 34.5029 56.9357 34.5025 56.9355 34.5022C56.935 34.5015 56.9343 34.5006 56.9335 34.4996C56.9318 34.4975 56.9296 34.4946 56.9267 34.4909C56.921 34.4836 56.9129 34.4733 56.9024 34.4599C56.8815 34.4333 56.8511 34.3949 56.8114 34.3455C56.7321 34.2466 56.6159 34.1036 56.4649 33.9228C56.163 33.5613 55.7217 33.0481 55.1581 32.4337C54.0321 31.2061 52.412 29.5681 50.4352 27.9274C46.5186 24.6769 41.0376 21.2785 35.1397 21.2785V23.2785ZM11.6329 49.1193C11.6329 42.2244 13.8067 35.7531 17.8144 31.0226C21.8073 26.3095 27.6556 23.2785 35.1397 23.2785V21.2785C27.064 21.2785 20.6589 24.571 16.2884 29.7298C11.9326 34.8712 9.63294 41.8203 9.63293 49.1193L11.6329 49.1193ZM51.6371 97.1795C54.3839 99.0156 57.9073 99.0156 60.6541 97.1795L59.5427 95.5168C57.4686 96.9032 54.8226 96.9032 52.7485 95.5168L51.6371 97.1795Z"
            fill="#804DEC" mask="url(#path-2-inside-1_121_54316)" />
    </g>
</svg>