<svg width="345" height="299" viewBox="0 0 345 299" fill="none" xmlns="http://www.w3.org/2000/svg">
    <g opacity="0.3">
        <ellipse cx="49.7494" cy="154.006" rx="35.7497" ry="27.7502" transform="rotate(2.14881 49.7494 154.006)"
            fill="#FDCBD4" />
        <circle cx="100.96" cy="70.5944" r="37.9926" transform="rotate(-12.8512 100.96 70.5944)" fill="#FDCBD4" />
        <ellipse cx="35.7498" cy="27.7502" rx="35.7498" ry="27.7502"
            transform="matrix(-0.884164 0.467177 0.467177 0.884164 308.688 57.9491)" fill="#FDCBD4" />
        <circle cx="37.9926" cy="37.9926" r="37.9926"
            transform="matrix(-0.974951 0.22242 0.22242 0.974951 236.315 0.74646)" fill="#FDCBD4" />
        <path fill-rule="evenodd" clip-rule="evenodd"
            d="M323.064 210.184C312.201 162.566 221.263 122.044 181.867 106.55C170.852 102.218 158.462 105.044 150.416 113.725C121.637 144.772 57.2717 220.724 68.1351 268.342C77.2039 308.094 110.341 337.797 153.919 327.855C184.942 320.778 204.547 278.483 204.547 278.483C204.547 278.483 240.555 308.091 271.578 301.013C315.156 291.072 332.132 249.936 323.064 210.184Z"
            fill="#FDCBD4" />
    </g>
    <g opacity="0.5">
        <path
            d="M79.6742 150.939C79.1054 166.099 62.7863 177.874 43.1165 177.136C23.4466 176.398 8.05587 163.433 8.62473 148.273C9.19358 133.112 25.5126 121.337 45.1825 122.075C64.8523 122.813 80.2431 135.778 79.6742 150.939Z"
            stroke="#F1899B" stroke-width="0.4" />
        <circle cx="95.36" cy="66.1944" r="37.7926" transform="rotate(-12.8512 95.36 66.1944)" stroke="#F1899B"
            stroke-width="0.4" />
        <path
            d="M253.012 111.394C260.1 124.808 279.911 128.341 297.315 119.145C314.718 109.949 322.963 91.5923 315.876 78.1783C308.788 64.7643 288.977 61.2316 271.573 70.4274C254.169 79.6231 245.924 97.9803 253.012 111.394Z"
            stroke="#F1899B" stroke-width="0.4" />
        <circle cx="37.9926" cy="37.9926" r="37.7926"
            transform="matrix(-0.974951 0.22242 0.22242 0.974951 230.715 -3.65356)" stroke="#F1899B"
            stroke-width="0.4" />
        <mask id="path-10-inside-1_39_9881" fill="white">
            <path fill-rule="evenodd" clip-rule="evenodd"
                d="M317.464 205.784C306.601 158.166 215.663 117.644 176.267 102.15C165.252 97.8176 152.862 100.644 144.815 109.325C116.037 140.372 51.6716 216.324 62.5351 263.942C71.6039 303.694 104.741 333.397 148.319 323.455C179.342 316.378 198.947 274.083 198.947 274.083C198.947 274.083 234.955 303.691 265.978 296.613C309.556 286.672 326.532 245.536 317.464 205.784Z" />
        </mask>
        <path
            d="M317.464 205.784L317.854 205.695L317.464 205.784ZM62.5351 263.942L62.925 263.853L62.5351 263.942ZM198.947 274.083L199.201 273.774L198.801 273.446L198.584 273.915L198.947 274.083ZM144.815 109.325L144.522 109.053L144.815 109.325ZM176.121 102.522C195.81 110.266 228.368 124.26 257.354 142.26C271.848 151.261 285.436 161.256 296.075 171.963C306.717 182.674 314.381 194.071 317.074 205.873L317.854 205.695C315.115 193.688 307.338 182.163 296.643 171.399C285.944 160.632 272.3 150.6 257.776 141.581C228.73 123.543 196.121 109.528 176.414 101.778L176.121 102.522ZM144.522 109.053C130.127 124.584 106.822 151.354 88.4722 180.205C79.2974 194.63 71.3536 209.588 66.3835 223.929C61.4149 238.267 59.4059 252.024 62.1451 264.031L62.925 263.853C60.2325 252.051 62.1954 238.458 67.1394 224.191C72.0819 209.929 79.9912 195.03 89.1472 180.634C107.459 151.843 130.726 125.114 145.109 109.597L144.522 109.053ZM62.1451 264.031C66.6975 283.986 77.2948 301.437 92.2461 312.654C107.205 323.876 126.504 328.843 148.408 323.845L148.23 323.065C126.556 328.01 107.498 323.096 92.7262 312.014C77.9472 300.926 67.4415 283.65 62.925 263.853L62.1451 264.031ZM148.408 323.845C164.059 320.275 176.789 307.837 185.584 296.358C189.987 290.611 193.417 285.087 195.746 281C196.911 278.956 197.801 277.271 198.4 276.096C198.7 275.508 198.927 275.048 199.079 274.734C199.155 274.577 199.212 274.457 199.251 274.376C199.27 274.335 199.285 274.304 199.295 274.283C199.3 274.273 199.303 274.265 199.306 274.26C199.307 274.257 199.308 274.255 199.309 274.253C199.309 274.253 199.309 274.252 199.309 274.252C199.31 274.251 199.31 274.251 198.947 274.083C198.584 273.915 198.584 273.915 198.584 273.915C198.584 273.915 198.583 273.916 198.583 273.916C198.583 273.917 198.582 273.919 198.581 273.922C198.578 273.927 198.575 273.934 198.57 273.944C198.561 273.964 198.547 273.994 198.528 274.033C198.491 274.112 198.434 274.23 198.359 274.385C198.209 274.694 197.984 275.15 197.687 275.732C197.093 276.898 196.209 278.572 195.051 280.604C192.735 284.668 189.325 290.161 184.949 295.872C176.186 307.31 163.601 319.559 148.23 323.065L148.408 323.845ZM265.889 296.223C250.518 299.73 233.866 294.151 221.009 287.645C214.59 284.397 209.135 280.927 205.285 278.269C203.36 276.941 201.838 275.816 200.797 275.023C200.276 274.627 199.877 274.314 199.607 274.1C199.473 273.994 199.371 273.912 199.302 273.857C199.268 273.829 199.243 273.808 199.226 273.794C199.217 273.787 199.211 273.782 199.207 273.779C199.205 273.777 199.203 273.776 199.202 273.775C199.202 273.775 199.201 273.774 199.201 273.774C199.201 273.774 199.201 273.774 198.947 274.083C198.693 274.392 198.693 274.392 198.693 274.392C198.694 274.393 198.694 274.393 198.695 274.394C198.696 274.395 198.698 274.396 198.7 274.398C198.705 274.402 198.711 274.407 198.72 274.414C198.738 274.429 198.765 274.451 198.8 274.479C198.87 274.535 198.974 274.619 199.11 274.727C199.383 274.944 199.787 275.26 200.312 275.66C201.362 276.459 202.895 277.591 204.831 278.928C208.702 281.6 214.188 285.09 220.648 288.359C233.551 294.888 250.416 300.574 266.067 297.003L265.889 296.223ZM317.074 205.873C321.59 225.67 319.616 245.793 311.108 262.193C302.604 278.585 287.563 291.279 265.889 296.223L266.067 297.003C287.971 292.006 303.207 279.161 311.818 262.562C320.426 245.971 322.406 225.65 317.854 205.695L317.074 205.873ZM176.414 101.778C165.245 97.3851 152.681 100.251 144.522 109.053L145.109 109.597C153.044 101.037 165.259 98.2502 176.121 102.522L176.414 101.778Z"
            fill="#F1899B" mask="url(#path-10-inside-1_39_9881)" />
    </g>
</svg>