<svg width="800" height="800" viewBox="0 0 800 800" fill="none" xmlns="http://www.w3.org/2000/svg">
<rect width="800" height="800" rx="400" fill="#FDFEFF"/>
<ellipse cx="184.445" cy="324.957" rx="62.6729" ry="48.649" transform="rotate(15 184.445 324.957)" fill="#131334"/>
<circle cx="304.497" cy="202.36" r="66.6049" fill="#131334"/>
<ellipse cx="62.6729" cy="48.649" rx="62.6729" ry="48.649" transform="matrix(-0.965926 0.258819 0.258819 0.965926 664.475 261.745)" fill="#131334"/>
<ellipse cx="66.6049" cy="66.6049" rx="66.6049" ry="66.6049" transform="matrix(-1 0 0 1 563.081 135.755)" fill="#131334"/>
<path fill-rule="evenodd" clip-rule="evenodd" d="M629.687 527.549C629.687 425.555 431.563 296.466 403.723 278.83C401.678 277.535 399.297 277.535 397.252 278.83C369.412 296.466 171.288 425.555 171.288 527.549C171.289 599.029 216.345 662.718 294.703 662.718C350.487 662.718 400.487 598.072 400.487 598.072C400.487 598.072 450.488 662.718 506.272 662.718C584.63 662.718 629.686 599.029 629.687 527.549Z" fill="#131334"/>
<path fill-rule="evenodd" clip-rule="evenodd" d="M320.17 446.287C320.17 482.806 390.666 529.101 399.568 534.801C400.132 535.162 400.844 535.162 401.408 534.801C410.309 529.101 480.805 482.806 480.805 446.287C480.805 420.888 465.016 398.257 437.557 398.257C418.009 398.257 400.488 421.228 400.488 421.228C400.488 421.228 382.966 398.257 363.418 398.257C335.959 398.257 320.17 420.888 320.17 446.287Z" fill="#FF0060"/>
</svg>
