<svg width="141" height="48" viewBox="0 0 141 48" fill="none" xmlns="http://www.w3.org/2000/svg">
    <g clip-path="url(#clip0_121_33141)">
        <ellipse cx="4.8483" cy="19.0247" rx="4.15511" ry="3.22535" transform="rotate(15 4.8483 19.0247)"
            fill="#131334" />
        <ellipse cx="12.8076" cy="10.8967" rx="4.41579" ry="4.41579" fill="#131334" />
        <ellipse cx="4.15511" cy="3.22535" rx="4.15511" ry="3.22535"
            transform="matrix(-0.965926 0.258819 0.258819 0.965926 36.6735 14.8339)" fill="#131334" />
        <ellipse cx="4.41579" cy="4.41579" rx="4.41579" ry="4.41579" transform="matrix(-1 0 0 1 29.9512 6.48096)"
            fill="#131334" />
        <path fill-rule="evenodd" clip-rule="evenodd"
            d="M34.3671 32.4561C34.3671 27.3586 26.9024 21.2402 22.4368 18.036C20.4706 16.6252 17.8725 16.6252 15.9062 18.036C11.4407 21.2402 3.97601 27.3586 3.97602 32.4561C3.97603 37.1951 6.96318 41.4176 12.1582 41.4176C15.8566 41.4176 19.1715 37.1317 19.1715 37.1317C19.1715 37.1317 22.4865 41.4176 26.1849 41.4176C31.3799 41.4176 34.3671 37.1951 34.3671 32.4561Z"
            fill="#131334" />
        <path fill-rule="evenodd" clip-rule="evenodd"
            d="M13.8466 27.0687C13.8466 28.976 16.7469 31.2854 18.2666 32.3646C18.8127 32.7524 19.5304 32.7524 20.0765 32.3646C21.5962 31.2854 24.4965 28.976 24.4965 27.0687C24.4965 25.3848 23.4497 23.8844 21.6292 23.8844C20.3332 23.8844 19.1715 25.4073 19.1715 25.4073C19.1715 25.4073 18.0099 23.8844 16.7139 23.8844C14.8934 23.8844 13.8466 25.3848 13.8466 27.0687Z"
            fill="#FF0060" />
    </g>
    <path
        d="M61.1001 12.8972C61.1001 13.6493 60.9281 14.3398 60.5841 14.9687C60.2401 15.5852 59.7118 16.0846 58.9992 16.4668C58.2866 16.8491 57.402 17.0402 56.3454 17.0402H54.3919V21.7011H51.2405V8.71717H56.3454C57.3774 8.71717 58.2497 8.89596 58.9623 9.25355C59.6749 9.61113 60.2094 10.1043 60.5657 10.7332C60.922 11.362 61.1001 12.0834 61.1001 12.8972ZM56.1058 14.5248C56.7078 14.5248 57.1563 14.383 57.4511 14.0994C57.746 13.8158 57.8934 13.4151 57.8934 12.8972C57.8934 12.3793 57.746 11.9786 57.4511 11.695C57.1563 11.4114 56.7078 11.2696 56.1058 11.2696H54.3919V14.5248H56.1058Z"
        fill="#131334" />
    <path
        d="M62.0535 16.5223C62.0535 15.4619 62.2501 14.531 62.6433 13.7295C63.0487 12.928 63.5955 12.3115 64.2835 11.8799C64.9715 11.4484 65.7394 11.2326 66.5871 11.2326C67.312 11.2326 67.9448 11.3805 68.4853 11.6765C69.0382 11.9724 69.4621 12.3608 69.757 12.8417V11.3805H72.9084V21.7011H69.757V20.2399C69.4498 20.7208 69.0198 21.1092 68.4669 21.4052C67.9263 21.7011 67.2936 21.8491 66.5687 21.8491C65.7332 21.8491 64.9715 21.6333 64.2835 21.2017C63.5955 20.7578 63.0487 20.1351 62.6433 19.3337C62.2501 18.5198 62.0535 17.5827 62.0535 16.5223ZM69.757 16.5408C69.757 15.7517 69.5358 15.129 69.0935 14.6728C68.6635 14.2165 68.1352 13.9884 67.5086 13.9884C66.882 13.9884 66.3476 14.2165 65.9053 14.6728C65.4752 15.1167 65.2602 15.7332 65.2602 16.5223C65.2602 17.3115 65.4752 17.9403 65.9053 18.4089C66.3476 18.8651 66.882 19.0932 67.5086 19.0932C68.1352 19.0932 68.6635 18.8651 69.0935 18.4089C69.5358 17.9526 69.757 17.33 69.757 16.5408Z"
        fill="#131334" />
    <path
        d="M89.8895 11.3805L87.1066 21.7011H83.6235L82.0017 15.0057L80.3247 21.7011H76.86L74.0587 11.3805H77.2101L78.6661 18.7603L80.3984 11.3805H83.7341L85.4849 18.7233L86.9224 11.3805H89.8895Z"
        fill="#131334" />
    <path
        d="M95.2141 21.8491C94.3172 21.8491 93.5186 21.6949 92.8183 21.3867C92.118 21.0784 91.5651 20.6592 91.1596 20.129C90.7542 19.5864 90.5269 18.9822 90.4777 18.3164H93.5923C93.6291 18.674 93.795 18.9637 94.0899 19.1857C94.3847 19.4076 94.7472 19.5186 95.1772 19.5186C95.5704 19.5186 95.8714 19.4446 96.0802 19.2967C96.3014 19.1364 96.412 18.9329 96.412 18.6863C96.412 18.3904 96.2584 18.1746 95.9512 18.039C95.6441 17.891 95.1465 17.7307 94.4585 17.5581C93.7213 17.3854 93.107 17.2067 92.6155 17.0217C92.1241 16.8244 91.7002 16.5223 91.3439 16.1154C90.9876 15.6962 90.8095 15.1351 90.8095 14.4323C90.8095 13.8405 90.9692 13.3041 91.2886 12.8232C91.6204 12.33 92.0995 11.9416 92.7261 11.658C93.365 11.3744 94.1206 11.2326 94.9929 11.2326C96.283 11.2326 97.2966 11.5532 98.0337 12.1943C98.7832 12.8355 99.2132 13.6863 99.3238 14.7467H96.412C96.3628 14.3892 96.2031 14.1056 95.9328 13.8959C95.6748 13.6863 95.3308 13.5815 94.9008 13.5815C94.5322 13.5815 94.2496 13.6555 94.053 13.8035C93.8564 13.9391 93.7582 14.1302 93.7582 14.3768C93.7582 14.6728 93.9117 14.8947 94.2189 15.0427C94.5383 15.1906 95.0298 15.3386 95.6932 15.4866C96.455 15.6839 97.0754 15.8811 97.5546 16.0784C98.0337 16.2634 98.4515 16.5716 98.8078 17.0032C99.1763 17.4224 99.3668 17.9896 99.3791 18.7048C99.3791 19.309 99.2071 19.8515 98.8631 20.3324C98.5313 20.801 98.046 21.1709 97.4071 21.4422C96.7805 21.7134 96.0495 21.8491 95.2141 21.8491Z"
        fill="#131334" />
    <path
        d="M102.831 10.3078C102.279 10.3078 101.824 10.1475 101.468 9.82691C101.124 9.49399 100.952 9.08709 100.952 8.6062C100.952 8.11298 101.124 7.70608 101.468 7.38549C101.824 7.05257 102.279 6.88611 102.831 6.88611C103.372 6.88611 103.814 7.05257 104.158 7.38549C104.515 7.70608 104.693 8.11298 104.693 8.6062C104.693 9.08709 104.515 9.49399 104.158 9.82691C103.814 10.1475 103.372 10.3078 102.831 10.3078ZM104.398 11.3805V21.7011H101.246V11.3805H104.398Z"
        fill="#131334" />
    <path
        d="M112.353 19.0192V21.7011H110.749C109.607 21.7011 108.716 21.4237 108.077 20.8688C107.438 20.3016 107.119 19.383 107.119 18.1129V14.0069H105.865V11.3805H107.119V8.86514H110.27V11.3805H112.334V14.0069H110.27V18.1499C110.27 18.4582 110.344 18.6801 110.491 18.8158C110.639 18.9514 110.884 19.0192 111.228 19.0192H112.353Z"
        fill="#131334" />
    <path
        d="M115.632 10.3078C115.079 10.3078 114.625 10.1475 114.268 9.82691C113.924 9.49399 113.752 9.08709 113.752 8.6062C113.752 8.11298 113.924 7.70608 114.268 7.38549C114.625 7.05257 115.079 6.88611 115.632 6.88611C116.173 6.88611 116.615 7.05257 116.959 7.38549C117.315 7.70608 117.494 8.11298 117.494 8.6062C117.494 9.08709 117.315 9.49399 116.959 9.82691C116.615 10.1475 116.173 10.3078 115.632 10.3078ZM117.199 11.3805V21.7011H114.047V11.3805H117.199Z"
        fill="#131334" />
    <path d="M124.048 18.7418L126.278 11.3805H129.632L125.983 21.7011H122.094L118.445 11.3805H121.818L124.048 18.7418Z"
        fill="#131334" />
    <path
        d="M140.591 16.3744C140.591 16.6703 140.573 16.9785 140.536 17.2991H133.404C133.453 17.9403 133.656 18.4335 134.012 18.7788C134.381 19.1117 134.829 19.2782 135.357 19.2782C136.144 19.2782 136.69 18.9452 136.998 18.2794H140.352C140.18 18.9576 139.866 19.5679 139.412 20.1105C138.97 20.653 138.41 21.0784 137.735 21.3867C137.059 21.6949 136.303 21.8491 135.468 21.8491C134.46 21.8491 133.564 21.6333 132.777 21.2017C131.991 20.7701 131.377 20.1536 130.934 19.3521C130.492 18.5507 130.271 17.6136 130.271 16.5408C130.271 15.4681 130.486 14.531 130.916 13.7295C131.358 12.928 131.973 12.3115 132.759 11.8799C133.545 11.4484 134.448 11.2326 135.468 11.2326C136.463 11.2326 137.348 11.4422 138.122 11.8614C138.896 12.2807 139.498 12.8787 139.928 13.6555C140.37 14.4323 140.591 15.3386 140.591 16.3744ZM137.366 15.5421C137.366 14.9995 137.182 14.568 136.813 14.2474C136.445 13.9268 135.984 13.7665 135.431 13.7665C134.903 13.7665 134.454 13.9206 134.086 14.2289C133.729 14.5371 133.508 14.9749 133.422 15.5421H137.366Z"
        fill="#131334" />
    <path
        d="M61.1001 32.1621C61.1001 32.9142 60.9281 33.6047 60.5841 34.2336C60.2401 34.8501 59.7118 35.3495 58.9992 35.7317C58.2866 36.114 57.402 36.3051 56.3454 36.3051H54.3919V40.966H51.2405V27.9821H56.3454C57.3774 27.9821 58.2497 28.1609 58.9623 28.5184C59.6749 28.876 60.2094 29.3692 60.5657 29.9981C60.922 30.6269 61.1001 31.3483 61.1001 32.1621ZM56.1058 33.7897C56.7078 33.7897 57.1563 33.6479 57.4511 33.3643C57.746 33.0807 57.8934 32.68 57.8934 32.1621C57.8934 31.6442 57.746 31.2435 57.4511 30.9599C57.1563 30.6763 56.7078 30.5345 56.1058 30.5345H54.3919V33.7897H56.1058Z"
        fill="#131334" />
    <path
        d="M72.3739 35.6393C72.3739 35.9352 72.3555 36.2435 72.3186 36.564H65.1865C65.2357 37.2052 65.4384 37.6984 65.7947 38.0437C66.1633 38.3766 66.6117 38.5431 67.14 38.5431C67.9263 38.5431 68.4731 38.2101 68.7802 37.5443H72.1343C71.9623 38.2225 71.649 38.8328 71.1944 39.3754C70.7521 39.9179 70.1931 40.3433 69.5174 40.6516C68.8416 40.9598 68.086 41.114 67.2506 41.114C66.2431 41.114 65.3462 40.8982 64.5599 40.4666C63.7736 40.035 63.1593 39.4185 62.717 38.6171C62.2747 37.8156 62.0535 36.8785 62.0535 35.8057C62.0535 34.733 62.2685 33.7959 62.6986 32.9944C63.1409 32.1929 63.7552 31.5764 64.5415 31.1448C65.3278 30.7133 66.2308 30.4975 67.2506 30.4975C68.2458 30.4975 69.1304 30.7071 69.9044 31.1263C70.6784 31.5456 71.2804 32.1436 71.7105 32.9204C72.1528 33.6972 72.3739 34.6035 72.3739 35.6393ZM69.1488 34.807C69.1488 34.2644 68.9645 33.8329 68.5959 33.5123C68.2273 33.1917 67.7666 33.0314 67.2137 33.0314C66.6854 33.0314 66.237 33.1855 65.8684 33.4938C65.5121 33.802 65.2909 34.2398 65.2049 34.807H69.1488Z"
        fill="#131334" />
    <path
        d="M79.7073 38.2841V40.966H78.104C76.9613 40.966 76.0706 40.6886 75.4317 40.1337C74.7928 39.5665 74.4734 38.6479 74.4734 37.3778V33.2718H73.2202V30.6454H74.4734V28.13H77.6248V30.6454H79.6889V33.2718H77.6248V37.4148C77.6248 37.7231 77.6985 37.945 77.846 38.0807C77.9934 38.2163 78.2391 38.2841 78.5831 38.2841H79.7073Z"
        fill="#131334" />
    <path
        d="M84.7124 34.4555C84.7124 33.1732 84.9888 32.0326 85.5417 31.0339C86.0946 30.0228 86.8625 29.2398 87.8454 28.6849C88.8406 28.1177 89.9647 27.8341 91.2179 27.8341C92.7537 27.8341 94.0683 28.241 95.1618 29.0548C96.2553 29.8686 96.9863 30.9784 97.3549 32.384H93.8902C93.6322 31.8415 93.2636 31.4284 92.7844 31.1448C92.3175 30.8612 91.7831 30.7194 91.1811 30.7194C90.2105 30.7194 89.4242 31.0585 88.8221 31.7367C88.2201 32.4149 87.9191 33.3211 87.9191 34.4555C87.9191 35.5899 88.2201 36.4962 88.8221 37.1744C89.4242 37.8526 90.2105 38.1917 91.1811 38.1917C91.7831 38.1917 92.3175 38.0499 92.7844 37.7663C93.2636 37.4827 93.6322 37.0696 93.8902 36.527H97.3549C96.9863 37.9327 96.2553 39.0425 95.1618 39.8563C94.0683 40.6577 92.7537 41.0585 91.2179 41.0585C89.9647 41.0585 88.8406 40.781 87.8454 40.2262C86.8625 39.659 86.0946 38.876 85.5417 37.8772C84.9888 36.8785 84.7124 35.7379 84.7124 34.4555Z"
        fill="#131334" />
    <path
        d="M98.5975 35.7872C98.5975 34.7268 98.7941 33.7959 99.1873 32.9944C99.5927 32.1929 100.139 31.5764 100.827 31.1448C101.516 30.7133 102.283 30.4975 103.131 30.4975C103.856 30.4975 104.489 30.6454 105.029 30.9414C105.582 31.2373 106.006 31.6257 106.301 32.1066V30.6454H109.452V40.966H106.301V39.5048C105.994 39.9857 105.564 40.3741 105.011 40.6701C104.47 40.966 103.838 41.114 103.113 41.114C102.277 41.114 101.516 40.8982 100.827 40.4666C100.139 40.0227 99.5927 39.4 99.1873 38.5986C98.7941 37.7847 98.5975 36.8476 98.5975 35.7872ZM106.301 35.8057C106.301 35.0166 106.08 34.3939 105.638 33.9377C105.207 33.4814 104.679 33.2533 104.053 33.2533C103.426 33.2533 102.892 33.4814 102.449 33.9377C102.019 34.3816 101.804 34.9981 101.804 35.7872C101.804 36.5764 102.019 37.2052 102.449 37.6738C102.892 38.13 103.426 38.3581 104.053 38.3581C104.679 38.3581 105.207 38.13 105.638 37.6738C106.08 37.2175 106.301 36.5949 106.301 35.8057Z"
        fill="#131334" />
    <path
        d="M113.853 32.3655C114.222 31.7983 114.682 31.3544 115.235 31.0339C115.788 30.7009 116.402 30.5345 117.078 30.5345V33.8822H116.212C115.426 33.8822 114.836 34.0548 114.443 34.4001C114.05 34.733 113.853 35.3248 113.853 36.1756V40.966H110.702V30.6454H113.853V32.3655Z"
        fill="#131334" />
    <path
        d="M128.218 35.6393C128.218 35.9352 128.199 36.2435 128.162 36.564H121.03C121.079 37.2052 121.282 37.6984 121.638 38.0437C122.007 38.3766 122.455 38.5431 122.984 38.5431C123.77 38.5431 124.317 38.2101 124.624 37.5443H127.978C127.806 38.2225 127.493 38.8328 127.038 39.3754C126.596 39.9179 126.037 40.3433 125.361 40.6516C124.685 40.9598 123.93 41.114 123.094 41.114C122.087 41.114 121.19 40.8982 120.404 40.4666C119.617 40.035 119.003 39.4185 118.561 38.6171C118.118 37.8156 117.897 36.8785 117.897 35.8057C117.897 34.733 118.112 33.7959 118.542 32.9944C118.985 32.1929 119.599 31.5764 120.385 31.1448C121.172 30.7133 122.075 30.4975 123.094 30.4975C124.09 30.4975 124.974 30.7071 125.748 31.1263C126.522 31.5456 127.124 32.1436 127.554 32.9204C127.997 33.6972 128.218 34.6035 128.218 35.6393ZM124.993 34.807C124.993 34.2644 124.808 33.8329 124.44 33.5123C124.071 33.1917 123.61 33.0314 123.057 33.0314C122.529 33.0314 122.081 33.1855 121.712 33.4938C121.356 33.802 121.135 34.2398 121.049 34.807H124.993Z"
        fill="#131334" />
    <defs>
        <clipPath id="clip0_121_33141">
            <rect width="38.2785" height="48" fill="white" />
        </clipPath>
    </defs>
</svg>