<svg width="556" height="556" viewBox="0 0 556 556" fill="none" xmlns="http://www.w3.org/2000/svg">
    <g opacity="0.2" clip-path="url(#clip0_592_5938)">
        <path
            d="M216.351 206.239C206.139 216.964 186.483 215.101 172.414 201.706C158.346 188.31 155.522 168.769 165.734 158.043C175.946 147.318 195.603 149.181 209.671 162.577C223.739 175.972 226.563 195.514 216.351 206.239Z"
            stroke="#CCBBF2" />
        <circle cx="283.846" cy="153.76" r="37.17" transform="rotate(28.596 283.846 153.76)" stroke="#CCBBF2" />
        <path
            d="M371.641 290.892C368.16 305.286 380.377 320.798 399.258 325.364C418.139 329.931 436.094 321.716 439.575 307.322C443.057 292.927 430.84 277.416 411.959 272.849C393.078 268.283 375.123 276.498 371.641 290.892Z"
            stroke="#CCBBF2" />
        <circle cx="37.67" cy="37.67" r="37.17" transform="matrix(-0.878016 -0.47863 -0.47863 0.878016 430.284 190.684)"
            stroke="#CCBBF2" />
        <mask id="path-5-inside-1_592_5938" fill="white">
            <path fill-rule="evenodd" clip-rule="evenodd"
                d="M357.3 403.272C376.087 368.807 352.716 303.279 333.01 259.787C320.796 232.833 292.698 217.515 263.425 221.855C216.193 228.857 148.454 244.718 129.667 279.183C110.317 314.679 115.451 358.502 154.362 379.714C182.064 394.815 224.393 376.248 224.393 376.248C224.393 376.248 231.722 421.885 259.424 436.986C298.335 458.198 337.95 438.767 357.3 403.272Z" />
        </mask>
        <path
            d="M357.3 403.272L358.178 403.751L357.3 403.272ZM129.667 279.183L130.545 279.662L129.667 279.183ZM224.393 376.248L225.38 376.089L225.175 374.813L223.991 375.332L224.393 376.248ZM332.099 260.2C341.94 281.919 352.679 309.105 358.615 335.137C364.565 361.228 365.628 385.905 356.422 402.793L358.178 403.751C367.759 386.174 366.531 360.854 360.565 334.693C354.586 308.472 343.786 281.148 333.92 259.375L332.099 260.2ZM263.278 220.866C239.633 224.371 210.816 230.099 185.538 239.281C160.317 248.442 138.37 261.128 128.789 278.704L130.545 279.662C139.751 262.774 161.068 250.297 186.221 241.161C211.317 232.045 239.985 226.341 263.572 222.844L263.278 220.866ZM128.789 278.704C119.017 296.63 115.404 316.699 119.187 335.007C122.975 353.338 134.168 369.845 153.884 380.592L154.841 378.836C135.645 368.372 124.815 352.361 121.146 334.603C117.472 316.822 120.967 297.232 130.545 279.662L128.789 278.704ZM153.884 380.592C168.05 388.314 185.849 387.392 199.958 384.625C207.036 383.237 213.237 381.374 217.669 379.859C219.886 379.101 221.663 378.43 222.887 377.946C223.499 377.705 223.973 377.51 224.296 377.375C224.457 377.308 224.581 377.256 224.664 377.22C224.706 377.202 224.738 377.188 224.76 377.179C224.771 377.174 224.779 377.17 224.785 377.168C224.788 377.167 224.79 377.166 224.791 377.165C224.792 377.165 224.793 377.164 224.793 377.164C224.794 377.164 224.794 377.164 224.393 376.248C223.991 375.332 223.991 375.332 223.991 375.332C223.991 375.332 223.991 375.332 223.99 375.333C223.989 375.333 223.987 375.334 223.985 375.335C223.981 375.337 223.974 375.34 223.964 375.344C223.945 375.352 223.916 375.365 223.877 375.381C223.798 375.415 223.681 375.465 223.525 375.53C223.214 375.66 222.752 375.849 222.153 376.086C220.954 376.559 219.207 377.22 217.022 377.967C212.652 379.461 206.54 381.296 199.573 382.662C185.592 385.404 168.376 386.214 154.841 378.836L153.884 380.592ZM259.902 436.108C246.367 428.729 237.72 413.821 232.449 400.584C229.823 393.988 228.053 387.857 226.941 383.374C226.386 381.133 225.994 379.307 225.742 378.043C225.617 377.411 225.526 376.92 225.466 376.588C225.436 376.422 225.415 376.296 225.401 376.212C225.393 376.17 225.388 376.139 225.385 376.118C225.383 376.108 225.382 376.1 225.381 376.096C225.381 376.093 225.38 376.091 225.38 376.09C225.38 376.09 225.38 376.09 225.38 376.089C225.38 376.089 225.38 376.089 224.393 376.248C223.405 376.406 223.405 376.407 223.406 376.407C223.406 376.408 223.406 376.409 223.406 376.41C223.406 376.411 223.407 376.414 223.407 376.417C223.408 376.423 223.41 376.432 223.411 376.444C223.415 376.467 223.421 376.501 223.429 376.546C223.444 376.636 223.467 376.768 223.497 376.94C223.559 377.284 223.652 377.788 223.781 378.434C224.038 379.725 224.436 381.581 225 383.855C226.128 388.402 227.923 394.623 230.591 401.324C235.91 414.681 244.779 430.142 258.945 437.864L259.902 436.108ZM356.422 402.793C346.844 420.364 332.272 433.915 315.337 440.461C298.423 446.999 279.098 446.572 259.902 436.108L258.945 437.864C278.661 448.611 298.599 449.075 316.058 442.327C333.495 435.587 348.406 421.676 358.178 403.751L356.422 402.793ZM333.92 259.375C321.523 232.013 292.993 216.461 263.278 220.866L263.572 222.844C292.403 218.57 320.07 233.652 332.099 260.2L333.92 259.375Z"
            fill="#CCBBF2" mask="url(#path-5-inside-1_592_5938)" />
    </g>
    <defs>
        <clipPath id="clip0_592_5938">
            <rect width="409.476" height="409.476" fill="white" transform="translate(196) rotate(28.596)" />
        </clipPath>
    </defs>
</svg>