<svg viewBox="0 0 1163 756" fill="none" xmlns="http://www.w3.org/2000/svg">
    <g opacity="0.3">
        <ellipse cx="308.624" cy="393.514" rx="89.3743" ry="69.3756" transform="rotate(2.14881 308.624 393.514)"
            fill="#FDCBD4" />
        <circle cx="436.65" cy="184.986" r="94.9815" transform="rotate(-12.8512 436.65 184.986)" fill="#FDCBD4" />
        <ellipse cx="89.3744" cy="69.3756" rx="89.3744" ry="69.3756"
            transform="matrix(-0.884164 0.467177 0.467177 0.884164 955.971 153.373)" fill="#FDCBD4" />
        <circle cx="94.9815" cy="94.9815" r="94.9815"
            transform="matrix(-0.974951 0.22242 0.22242 0.974951 775.038 10.3662)" fill="#FDCBD4" />
        <path fill-rule="evenodd" clip-rule="evenodd"
            d="M991.909 533.961C964.751 414.916 737.408 313.61 638.919 274.875C611.379 264.044 580.406 271.11 560.289 292.813C488.343 370.431 327.429 560.31 354.588 679.355C377.26 778.735 460.103 852.993 569.047 828.139C646.605 810.445 695.617 704.707 695.617 704.707C695.617 704.707 785.638 778.727 863.195 761.033C972.139 736.18 1014.58 633.34 991.909 533.961Z"
            fill="#FDCBD4" />
    </g>
    <g opacity="0.5">
        <path
            d="M383.435 385.846C382.013 423.748 341.216 453.186 292.041 451.341C242.866 449.496 204.39 417.084 205.812 379.182C207.234 341.28 248.031 311.842 297.206 313.687C346.381 315.532 384.858 347.945 383.435 385.846Z"
            stroke="#F1899B" />
        <circle cx="422.65" cy="173.986" r="94.4815" transform="rotate(-12.8512 422.65 173.986)" stroke="#F1899B" />
        <path
            d="M816.78 286.986C834.499 320.521 884.028 329.352 927.537 306.363C971.046 283.374 991.658 237.481 973.939 203.946C956.22 170.411 906.692 161.579 863.183 184.568C819.674 207.558 799.061 253.451 816.78 286.986Z"
            stroke="#F1899B" />
        <circle cx="94.9815" cy="94.9815" r="94.4815"
            transform="matrix(-0.974951 0.22242 0.22242 0.974951 761.038 -0.633789)" stroke="#F1899B" />
        <mask id="path-10-inside-1_26_6936" fill="white">
            <path fill-rule="evenodd" clip-rule="evenodd"
                d="M977.909 522.961C950.751 403.916 723.408 302.61 624.919 263.875C597.379 253.044 566.406 260.11 546.289 281.813C474.343 359.431 313.429 549.31 340.588 668.355C363.26 767.735 446.103 841.993 555.047 817.139C632.605 799.445 681.617 693.707 681.617 693.707C681.617 693.707 771.638 767.727 849.195 750.033C958.139 725.18 1000.58 622.34 977.909 522.961Z" />
        </mask>
        <path
            d="M977.909 522.961L978.884 522.738L977.909 522.961ZM340.588 668.355L341.563 668.133L340.588 668.355ZM681.617 693.707L682.252 692.935L681.253 692.114L680.71 693.287L681.617 693.707ZM624.553 264.806C673.775 284.165 755.169 319.149 827.636 364.151C863.869 386.653 897.841 411.64 924.438 438.408C951.043 465.185 970.203 493.678 976.934 523.183L978.884 522.738C972.036 492.721 952.594 463.909 925.857 436.999C899.111 410.081 864.999 385 828.691 362.452C756.074 317.357 674.551 282.321 625.285 262.945L624.553 264.806ZM545.555 281.134C509.566 319.96 451.305 386.885 405.43 459.012C382.493 495.076 362.634 532.469 350.209 568.324C337.787 604.167 332.765 638.561 339.613 668.578L341.563 668.133C334.831 638.628 339.739 604.644 352.098 568.979C364.455 533.324 384.228 496.075 407.118 460.086C452.898 388.107 511.066 321.284 547.022 282.493L545.555 281.134ZM339.613 668.578C350.994 718.465 377.487 762.093 414.865 790.135C452.262 818.19 500.509 830.606 555.269 818.114L554.825 816.164C500.641 828.525 452.995 816.24 416.065 788.535C379.118 760.816 352.854 717.626 341.563 668.133L339.613 668.578ZM555.269 818.114C594.398 809.187 626.223 778.094 648.21 749.396C659.218 735.028 667.793 721.218 673.616 711.001C676.528 705.891 678.752 701.678 680.25 698.74C680.999 697.271 681.566 696.12 681.947 695.336C682.137 694.944 682.281 694.643 682.377 694.44C682.426 694.338 682.462 694.261 682.486 694.209C682.499 694.182 682.508 694.163 682.514 694.149C682.517 694.142 682.52 694.137 682.521 694.134C682.522 694.132 682.523 694.131 682.523 694.13C682.524 694.129 682.524 694.128 681.617 693.707C680.71 693.287 680.709 693.287 680.709 693.288C680.709 693.288 680.708 693.289 680.708 693.291C680.706 693.294 680.704 693.298 680.701 693.304C680.696 693.316 680.687 693.335 680.676 693.36C680.652 693.409 680.617 693.484 680.57 693.583C680.476 693.781 680.335 694.076 680.148 694.463C679.773 695.236 679.211 696.374 678.468 697.831C676.983 700.745 674.773 704.931 671.878 710.01C666.087 720.171 657.562 733.902 646.622 748.18C624.714 776.775 593.253 807.397 554.825 816.164L555.269 818.114ZM848.973 749.059C810.544 757.825 768.916 743.877 736.774 727.613C720.724 719.492 707.087 710.818 697.463 704.174C692.651 700.852 688.844 698.039 686.242 696.058C684.941 695.067 683.941 694.285 683.268 693.751C682.931 693.484 682.676 693.279 682.506 693.141C682.421 693.073 682.357 693.021 682.314 692.986C682.293 692.969 682.277 692.956 682.267 692.947C682.262 692.943 682.258 692.94 682.255 692.938C682.254 692.937 682.253 692.936 682.253 692.936C682.252 692.935 682.252 692.935 681.617 693.707C680.982 694.48 680.982 694.48 680.983 694.481C680.984 694.482 680.985 694.483 680.987 694.484C680.99 694.486 680.994 694.49 681 694.495C681.011 694.504 681.028 694.518 681.051 694.536C681.095 694.573 681.162 694.626 681.249 694.697C681.424 694.839 681.684 695.047 682.025 695.318C682.709 695.86 683.719 696.65 685.031 697.649C687.654 699.647 691.486 702.478 696.326 705.82C706.004 712.501 719.72 721.226 735.871 729.398C768.128 745.72 810.289 759.935 849.418 751.008L848.973 749.059ZM976.934 523.183C988.225 572.676 983.291 622.984 962.02 663.984C940.761 704.964 903.157 736.697 848.973 749.059L849.418 751.008C904.178 738.516 942.267 706.403 963.796 664.905C985.314 623.427 990.265 572.625 978.884 522.738L976.934 523.183ZM625.285 262.945C597.362 251.963 565.952 259.128 545.555 281.134L547.022 282.493C566.859 261.092 597.396 254.125 624.553 264.806L625.285 262.945Z"
            fill="#F1899B" mask="url(#path-10-inside-1_26_6936)" />
    </g>
</svg>