<svg width="48" height="48" viewBox="0 0 48 48" fill="none" xmlns="http://www.w3.org/2000/svg">
<ellipse cx="9.70908" cy="19.0249" rx="4.15511" ry="3.22535" transform="rotate(15 9.70908 19.0249)" fill="#FDFEFF"/>
<circle cx="17.6684" cy="10.8967" r="4.41579" fill="#FDFEFF"/>
<ellipse cx="4.15511" cy="3.22535" rx="4.15511" ry="3.22535" transform="matrix(-0.965926 0.258819 0.258819 0.965926 41.5343 14.834)" fill="#FDFEFF"/>
<ellipse cx="4.41579" cy="4.41579" rx="4.41579" ry="4.41579" transform="matrix(-1 0 0 1 34.812 6.48096)" fill="#FDFEFF"/>
<path fill-rule="evenodd" clip-rule="evenodd" d="M27.2976 18.0362C31.7631 21.2403 39.2278 27.3587 39.2278 32.4563C39.2278 37.1952 36.2406 41.4177 31.0456 41.4177C27.3472 41.4177 24.0323 37.1318 24.0323 37.1318C24.0323 37.1318 20.7173 41.4177 17.0189 41.4177C11.8239 41.4177 8.83674 37.1952 8.83673 32.4563C8.83672 27.3587 16.3014 21.2403 20.767 18.0362C22.7332 16.6253 25.3313 16.6253 27.2976 18.0362ZM23.1273 32.3646C21.6077 31.2854 18.7073 28.9759 18.7073 27.0687C18.7074 25.3847 19.7541 23.8844 21.5746 23.8844C22.8706 23.8844 24.0323 25.4073 24.0323 25.4073C24.0323 25.4073 25.1939 23.8844 26.4899 23.8844C28.3104 23.8844 29.3572 25.3847 29.3572 27.0687C29.3572 28.9759 26.4569 31.2854 24.9372 32.3646C24.3911 32.7524 23.6734 32.7524 23.1273 32.3646Z" fill="#FDFEFF"/>
</svg>
