<svg width="60" height="40" viewBox="0 0 60 40" fill="none" xmlns="http://www.w3.org/2000/svg">
<circle cx="33" cy="20" r="20" fill="#7791EE" fill-opacity="0.1"/>
<circle cx="30" cy="20" r="19.5" stroke="#7791EE" stroke-opacity="0.4"/>
<path d="M34.1667 19.1667H30.8333V15.8333C30.8333 15.6123 30.7455 15.4004 30.5893 15.2441C30.433 15.0878 30.221 15 30 15C29.779 15 29.567 15.0878 29.4107 15.2441C29.2545 15.4004 29.1667 15.6123 29.1667 15.8333V19.1667H25.8333C25.6123 19.1667 25.4004 19.2545 25.2441 19.4107C25.0878 19.567 25 19.779 25 20C25 20.221 25.0878 20.433 25.2441 20.5893C25.4004 20.7455 25.6123 20.8333 25.8333 20.8333H29.1667V24.1667C29.1667 24.3877 29.2545 24.5996 29.4107 24.7559C29.567 24.9122 29.779 25 30 25C30.221 25 30.433 24.9122 30.5893 24.7559C30.7455 24.5996 30.8333 24.3877 30.8333 24.1667V20.8333H34.1667C34.3877 20.8333 34.5996 20.7455 34.7559 20.5893C34.9122 20.433 35 20.221 35 20C35 19.779 34.9122 19.567 34.7559 19.4107C34.5996 19.2545 34.3877 19.1667 34.1667 19.1667Z" fill="#7791EE"/>
</svg>
