<?xml version="1.0" standalone="no"?>
<!DOCTYPE svg PUBLIC "-//W3C//DTD SVG 20010904//EN"
 "http://www.w3.org/TR/2001/REC-SVG-20010904/DTD/svg10.dtd">
<svg version="1.0" xmlns="http://www.w3.org/2000/svg"
 width="700.000000pt" height="700.000000pt" viewBox="0 0 700.000000 700.000000"
 preserveAspectRatio="xMidYMid meet">
<metadata>
Created by potrace 1.14, written by Peter Selinger 2001-2017
</metadata>
<g transform="translate(0.000000,700.000000) scale(0.100000,-0.100000)"
fill="#000000" stroke="none">
<path d="M2510 5789 c-241 -63 -430 -308 -430 -559 0 -137 71 -307 169 -405
114 -115 227 -165 386 -173 170 -8 305 41 423 153 125 117 186 258 186 425 0
168 -62 310 -186 425 -148 137 -349 186 -548 134z"/>
<path d="M4190 5789 c-259 -68 -447 -333 -426 -600 19 -232 171 -432 392 -510
82 -30 237 -37 324 -15 200 50 361 203 422 401 30 97 30 233 0 330 -61 198
-226 353 -423 400 -86 20 -198 18 -289 -6z"/>
<path d="M1405 4576 c-232 -56 -371 -250 -321 -444 24 -95 52 -140 135 -222
127 -126 272 -183 461 -184 127 0 215 23 307 83 117 75 168 177 161 315 -6
113 -39 178 -137 277 -124 124 -290 190 -473 188 -46 0 -105 -6 -133 -13z"/>
<path d="M5305 4571 c-266 -65 -448 -258 -448 -474 0 -67 5 -86 32 -142 110
-223 458 -301 733 -165 201 100 310 250 310 428 -1 261 -306 432 -627 353z"/>
<path d="M3404 4513 c-593 -382 -1208 -904 -1517 -1288 -251 -311 -372 -565
-384 -806 -18 -341 113 -698 336 -920 174 -173 375 -265 631 -291 142 -14 258
1 386 51 190 74 434 258 609 460 l38 44 84 -91 c241 -262 513 -428 757 -464
101 -14 267 0 386 33 450 124 750 541 777 1079 10 206 -45 392 -185 625 -232
386 -711 852 -1354 1318 -184 134 -445 307 -462 307 -7 0 -53 -26 -102 -57z"/>
</g>
</svg>
