<svg width="120" height="120" viewBox="0 0 120 120" fill="none" xmlns="http://www.w3.org/2000/svg">
    <path
        d="M60.4157 19.4736C61.4356 17.2168 64.6404 17.2168 65.6602 19.4736L75.2703 40.7394C75.689 41.6658 76.5654 42.3026 77.5759 42.4145L100.771 44.9827C103.232 45.2553 104.222 48.3033 102.391 49.9706L85.1359 65.6818C84.3842 66.3663 84.0494 67.3966 84.2553 68.3922L88.9803 91.2452C89.4817 93.6704 86.8889 95.5542 84.7374 94.3279L64.4629 82.7722C63.5796 82.2687 62.4963 82.2687 61.6131 82.7722L41.3386 94.3279C39.187 95.5542 36.5943 93.6704 37.0957 91.2452L41.8207 68.3922C42.0265 67.3966 41.6918 66.3663 40.94 65.6818L23.6847 49.9706C21.8536 48.3033 22.8439 45.2553 25.3054 44.9827L48.5001 42.4145C49.5105 42.3026 50.387 41.6658 50.8056 40.7394L60.4157 19.4736Z"
        fill="#CCBBF2" fill-opacity="0.6" />
    <path opacity="0.5"
        d="M54.7954 19.6795C55.638 17.8149 58.286 17.8149 59.1286 19.6795L68.7387 40.9453C69.2301 42.0327 70.2589 42.7801 71.4449 42.9115L94.6396 45.4797C96.6733 45.7049 97.4916 48.2233 95.9786 49.6009L78.7233 65.3121C77.841 66.1155 77.448 67.3248 77.6897 68.4934L82.4146 91.3465C82.829 93.3503 80.6867 94.9067 78.909 93.8935L58.6345 82.3378C57.5978 81.7469 56.3262 81.7469 55.2895 82.3378L35.0151 93.8935C33.2373 94.9067 31.0951 93.3503 31.5094 91.3465L36.2344 68.4934C36.476 67.3248 36.083 66.1155 35.2007 65.3121L17.9454 49.6009C16.4324 48.2233 17.2507 45.7049 19.2845 45.4797L42.4791 42.9115C43.6652 42.7801 44.6939 42.0327 45.1853 40.9453L54.7954 19.6795Z"
        stroke="#804DEC" />
</svg>