<svg width="125" height="125" viewBox="0 0 125 125" fill="none" xmlns="http://www.w3.org/2000/svg">
    <g opacity="0.2">
        <path
            d="M71.1352 32.5666L70.6538 32.7016L71.1352 32.5666ZM56.3307 14.0059L56.1813 13.5288V13.5288L56.3307 14.0059ZM72.6714 41.2144L72.1737 41.2627L72.2578 42.1292L72.9638 41.6199L72.6714 41.2144ZM74.4306 39.9456L74.723 40.3512L74.4306 39.9456ZM75.6254 39.073L75.9215 39.4759L75.9254 39.473L75.6254 39.073ZM75.6256 39.0728L75.3295 38.6699L75.3256 38.6728L75.6256 39.0728ZM77.3696 37.8082L77.658 38.2166L77.3696 37.8082ZM100.586 32.0701L100.258 32.4469L100.586 32.0701ZM92.4962 54.391L92.8628 54.731L92.4962 54.391ZM86.0945 60.0912L85.7921 59.693L85.0941 60.223L85.9055 60.5541L86.0945 60.0912ZM87.9124 60.8331L87.7234 61.296L87.9124 60.8331ZM89.2857 61.384L89.4705 60.9194L89.2857 61.384ZM91.2825 62.1928L91.0889 62.6538L91.2825 62.1928ZM108.452 78.8411L108.945 78.9203L108.452 78.8411ZM85.2353 83.8085L85.3294 83.3174L85.2353 83.8085ZM74.9616 80.5892L75.1518 80.1268L74.4176 79.8248L74.4624 80.6174L74.9616 80.5892ZM75.3854 88.0969L74.8862 88.125L75.3854 88.0969ZM75.4968 89.8428L75.9957 89.81L75.9957 89.8091L75.4968 89.8428ZM75.4969 89.8437H75.9969V89.8272L75.9958 89.8108L75.4969 89.8437ZM75.4969 89.8437H74.9969V89.8606L74.998 89.8774L75.4969 89.8437ZM75.654 92.5112L76.1536 92.4903V92.4903L75.654 92.5112ZM69.256 111.154L69.1141 110.674L69.256 111.154ZM59.473 105.672L59.8768 105.377L59.473 105.672ZM52.6271 83.3846L53.1251 83.3394L53.0475 82.4848L52.3423 82.9737L52.6271 83.3846ZM47.3696 87.0293L47.0847 86.6184H47.0847L47.3696 87.0293ZM45.9386 88.037L46.2279 88.4447L45.9386 88.037ZM43.7461 89.5648L43.4673 89.1498H43.4673L43.7461 89.5648ZM24.5077 93.8504L24.8423 93.4789L24.5077 93.8504ZM24.0703 82.6446L24.5327 82.8348L24.0703 82.6446ZM39.3355 65.2825L39.6349 65.683L40.3278 65.165L39.5331 64.8232L39.3355 65.2825ZM33.643 62.8346L33.4455 63.2939H33.4455L33.643 62.8346ZM32.03 62.155L32.2225 61.6935L32.03 62.155ZM29.5726 61.1053L29.3684 61.5617H29.3684L29.5726 61.1053ZM15.7434 47.0612L16.2358 47.1481H16.2358L15.7434 47.0612ZM25.0147 40.7522L25.0985 41.2451H25.0985L25.0147 40.7522ZM49.7428 45.2572L49.5553 45.7207L50.3018 46.0227L50.2414 45.2197L49.7428 45.2572ZM49.3793 40.4224L48.8807 40.4599V40.4599L49.3793 40.4224ZM49.2596 38.9478L48.761 38.9861L48.7613 38.9897L49.2596 38.9478ZM49.2595 38.9477L49.7581 38.9093L49.7578 38.9057L49.2595 38.9477ZM49.0924 36.7997L48.5935 36.8321L49.0924 36.7997ZM71.6167 32.4317C70.4877 28.4036 68.6885 23.1067 66.1884 19.108C64.9388 17.1094 63.4914 15.3976 61.831 14.3412C60.1523 13.2731 58.2574 12.8785 56.1813 13.5288L56.4802 14.4831C58.2384 13.9324 59.8298 14.2532 61.2941 15.1849C62.7767 16.1282 64.1289 17.7004 65.3405 19.6381C67.7625 23.512 69.5312 28.6964 70.6538 32.7016L71.6167 32.4317ZM73.169 41.1661C72.8836 38.2255 72.4199 35.2975 71.6167 32.4317L70.6538 32.7016C71.4365 35.4942 71.892 38.3608 72.1737 41.2627L73.169 41.1661ZM74.1381 39.5401L72.3789 40.8089L72.9638 41.6199L74.723 40.3512L74.1381 39.5401ZM75.3293 38.6701C74.9322 38.962 74.5369 39.2525 74.1381 39.5401L74.723 40.3512C75.1261 40.0605 75.525 39.7673 75.9215 39.4759L75.3293 38.6701ZM75.3256 38.6728L75.3254 38.673L75.9254 39.473L75.9256 39.4728L75.3256 38.6728ZM77.0812 37.3997C76.4884 37.8182 75.907 38.2455 75.3295 38.67L75.9217 39.4757C76.5005 39.0504 77.0743 38.6287 77.658 38.2166L77.0812 37.3997ZM100.915 31.6934C99.2454 30.2364 97.1539 29.7082 94.9372 29.757C92.7264 29.8057 90.3612 30.4277 88.0869 31.3042C83.5379 33.0575 79.244 35.8727 77.0812 37.3997L77.658 38.2166C79.7988 36.7051 84.0131 33.9461 88.4465 32.2373C90.6635 31.3829 92.9079 30.8019 94.9592 30.7567C97.0045 30.7117 98.8273 31.1987 100.258 32.4469L100.915 31.6934ZM92.8628 54.731C95.7074 51.6637 99.2837 47.362 101.387 43.141C102.438 41.0313 103.141 38.9027 103.174 36.935C103.208 34.9457 102.554 33.1238 100.915 31.6934L100.258 32.4469C101.646 33.6582 102.204 35.1828 102.175 36.9181C102.145 38.6751 101.511 40.6496 100.492 42.695C98.4543 46.7843 94.958 51.0012 92.1296 54.051L92.8628 54.731ZM86.3969 60.4894C88.6932 58.7456 90.8877 56.8607 92.8628 54.731L92.1296 54.051C90.205 56.1263 88.0574 57.9727 85.7921 59.693L86.3969 60.4894ZM85.9055 60.5541L87.7234 61.296L88.1013 60.3701L86.2834 59.6283L85.9055 60.5541ZM87.7234 61.296C88.1836 61.4838 88.6436 61.6667 89.1009 61.8486L89.4705 60.9194C89.0124 60.7372 88.5566 60.5559 88.1013 60.3701L87.7234 61.296ZM89.1009 61.8486C89.7683 62.114 90.43 62.3772 91.0889 62.6538L91.4761 61.7318C90.807 61.4509 90.1364 61.1842 89.4705 60.9194L89.1009 61.8486ZM91.0889 62.6538C93.5052 63.6684 98.0782 65.7802 101.877 68.6345C103.776 70.0618 105.458 71.6573 106.584 73.373C107.706 75.0836 108.258 76.8875 107.958 78.762L108.945 78.9203C109.296 76.7321 108.636 74.6785 107.42 72.8245C106.207 70.9755 104.426 69.2992 102.477 67.835C98.58 64.9064 93.9171 62.7567 91.4761 61.7318L91.0889 62.6538ZM107.958 78.762C107.666 80.5812 106.669 81.8623 105.182 82.757C103.676 83.6629 101.666 84.1715 99.3911 84.3912C94.8435 84.8303 89.4146 84.0999 85.3294 83.3174L85.1413 84.2995C89.2499 85.0865 94.7931 85.8398 99.4872 85.3866C101.833 85.16 104.011 84.6285 105.697 83.6139C107.402 82.5882 108.601 81.0685 108.945 78.9203L107.958 78.762ZM85.3294 83.3174C81.8369 82.6485 78.4654 81.49 75.1518 80.1268L74.7714 81.0517C78.1185 82.4286 81.5583 83.6133 85.1413 84.2995L85.3294 83.3174ZM75.8846 88.0687L75.4608 80.5611L74.4624 80.6174L74.8862 88.125L75.8846 88.0687ZM75.9957 89.8091C75.9564 89.2271 75.9173 88.6481 75.8846 88.0687L74.8862 88.125C74.9193 88.7109 74.9587 89.2953 74.998 89.8765L75.9957 89.8091ZM75.9958 89.8108L75.9957 89.81L74.9979 89.8756L74.998 89.8765L75.9958 89.8108ZM75.9969 89.8437V89.8437H74.9969V89.8437H75.9969ZM76.1536 92.4903C76.1161 91.5921 76.0557 90.6975 75.9957 89.81L74.998 89.8774C75.0581 90.767 75.1176 91.6488 75.1544 92.532L76.1536 92.4903ZM69.3979 111.633C72.889 110.6 74.5931 106.911 75.4221 103.09C76.2608 99.2251 76.2578 94.988 76.1536 92.4903L75.1544 92.532C75.2575 95.0012 75.2565 99.1379 74.4449 102.878C73.6236 106.663 72.025 109.813 69.1141 110.674L69.3979 111.633ZM59.0692 105.967C60.435 107.837 62.0025 109.536 63.7253 110.629C65.4576 111.728 67.3785 112.231 69.3979 111.633L69.1141 110.674C67.4465 111.168 65.8243 110.776 64.261 109.784C62.6883 108.787 61.2077 107.199 59.8768 105.377L59.0692 105.967ZM52.1292 83.4298C52.8498 91.3621 54.3204 99.4647 59.0692 105.967L59.8768 105.377C55.2977 99.1074 53.8428 91.2404 53.1251 83.3394L52.1292 83.4298ZM47.6544 87.4402L52.912 83.7955L52.3423 82.9737L47.0847 86.6184L47.6544 87.4402ZM46.2279 88.4447C46.7039 88.107 47.1773 87.771 47.6544 87.4402L47.0847 86.6184C46.6023 86.9528 46.1244 87.292 45.6492 87.6292L46.2279 88.4447ZM44.0249 89.9799C44.7712 89.4786 45.5025 88.9596 46.2279 88.4447L45.6492 87.6292C44.922 88.1453 44.2012 88.6568 43.4673 89.1498L44.0249 89.9799ZM24.173 94.2219C26.8782 96.6586 30.9136 96.1843 34.6046 94.8948C38.3386 93.5903 41.9498 91.3738 44.0249 89.9799L43.4673 89.1498C41.4158 90.5278 37.8882 92.6884 34.2748 93.9508C30.6184 95.2282 27.0979 95.5107 24.8423 93.4789L24.173 94.2219ZM23.6079 82.4544C22.7271 84.596 22.0973 86.8204 22.0655 88.8604C22.0336 90.9117 22.6082 92.8124 24.173 94.2219L24.8423 93.4789C23.5501 92.3149 23.0366 90.7271 23.0654 88.876C23.0944 87.0136 23.6744 84.9217 24.5327 82.8348L23.6079 82.4544ZM39.0362 64.8821C32.7078 69.613 26.6448 75.0705 23.6079 82.4544L24.5327 82.8348C27.4608 75.7154 33.3334 70.3939 39.6349 65.683L39.0362 64.8821ZM39.5331 64.8232L33.8405 62.3753L33.4455 63.2939L39.138 65.7419L39.5331 64.8232ZM33.8405 62.3753C33.3012 62.1434 32.7603 61.9178 32.2225 61.6935L31.8376 62.6164C32.3762 62.8411 32.9121 63.0646 33.4455 63.2939L33.8405 62.3753ZM32.2225 61.6935C31.3995 61.3503 30.5838 61.0101 29.7768 60.6489L29.3684 61.5617C30.189 61.9289 31.0166 62.2741 31.8376 62.6164L32.2225 61.6935ZM29.7768 60.6489C27.5211 59.6394 23.8195 57.7927 20.8341 55.3974C17.8132 52.9735 15.708 50.1377 16.2358 47.1481L15.251 46.9743C14.6181 50.5596 17.1588 53.7305 20.2083 56.1773C23.2933 58.6527 27.0866 60.5406 29.3684 61.5617L29.7768 60.6489ZM16.2358 47.1481C16.5381 45.4355 17.6126 44.1585 19.1977 43.2021C20.7924 42.2398 22.8738 41.6231 25.0985 41.2451L24.9309 40.2592C22.648 40.6472 20.4279 41.2918 18.6811 42.3459C16.9245 43.4058 15.6171 44.9003 15.251 46.9743L16.2358 47.1481ZM25.0985 41.2451C33.3526 39.8426 41.6443 42.5205 49.5553 45.7207L49.9303 44.7937C42.0104 41.5899 33.4862 38.8055 24.9309 40.2592L25.0985 41.2451ZM48.8807 40.4599L49.2442 45.2947L50.2414 45.2197L49.8779 40.3849L48.8807 40.4599ZM48.7613 38.9897C48.8027 39.4808 48.8438 39.9696 48.8807 40.4599L49.8779 40.3849C49.8406 39.8894 49.7991 39.3962 49.7578 38.9058L48.7613 38.9897ZM48.761 38.986L48.761 38.9861L49.7581 38.9094L49.7581 38.9093L48.761 38.986ZM48.5935 36.8321C48.6406 37.5563 48.7012 38.2754 48.7613 38.9896L49.7578 38.9057C49.6975 38.19 49.6378 37.4803 49.5914 36.7672L48.5935 36.8321ZM56.1813 13.5288C54.0665 14.1912 52.5233 15.6986 51.4067 17.6141C50.2931 19.5245 49.5876 21.8662 49.1467 24.2634C48.2648 29.0581 48.4215 34.1902 48.5935 36.8321L49.5914 36.7672C49.4212 34.1521 49.2707 29.1172 50.1302 24.4443C50.56 22.1076 51.2374 19.8903 52.2706 18.1177C53.3009 16.3502 54.6685 15.0505 56.4802 14.4831L56.1813 13.5288Z"
            fill="#FDCBD4" />
        <path
            d="M51.6197 63.8838C51.6821 60.8394 51.9833 58.5182 54.0201 56.051C56.3984 53.1701 59.0464 51.8162 62.765 52.1736C67.0687 52.5873 70.3435 53.0976 72.6312 58.5976C75.2048 64.7849 70.8327 72.3659 64.2102 73.3897C58.4174 74.2852 51.4997 69.7442 51.6197 63.8838Z"
            stroke="#FDCBD4" />
    </g>
</svg>